<?xml version="1.0" encoding="UTF-8" standalone="no"?><!DOCTYPE svg PUBLIC "-//W3C//DTD SVG 1.1//EN" "http://www.w3.org/Graphics/SVG/1.1/DTD/svg11.dtd"><svg width="100%" height="100%" viewBox="0 0 1191 411" version="1.1" xmlns="http://www.w3.org/2000/svg" xmlns:xlink="http://www.w3.org/1999/xlink" xml:space="preserve" xmlns:serif="http://www.serif.com/" style="fill-rule:evenodd;clip-rule:evenodd;stroke-linejoin:round;stroke-miterlimit:2;"><rect id="Page-1" serif:id="Page 1" x="0" y="0" width="1190.55" height="411" style="fill:none;"/><g id="Layer-1" serif:id="Layer 1"><path d="M600.149,303.465l0,-131.492c0,-15.453 29.853,-14.721 29.853,-0.037c13.62,-6.537 16.274,-8.465 33.969,-8.465c25.734,-0 45.636,11.323 56.273,31.911c7.547,14.066 7.89,27.449 7.89,30.192l0,77.891c0,11.322 -8.921,20.244 -19.901,20.244c-10.98,-0 -20.244,-8.922 -20.244,-20.244l0,-77.891c0,-0.685 -0.342,-6.861 -3.432,-12.694c-2.744,-4.462 -7.205,-9.266 -20.586,-9.266c-13.039,-0 -17.843,4.804 -20.244,9.266c-3.432,5.833 -3.775,12.009 -3.775,12.694l0,77.891c0,11.322 -8.921,20.244 -19.901,20.244c-10.98,-0 -19.902,-8.922 -19.902,-20.244" style="fill:#fff;fill-rule:nonzero;"/><path d="M663.972,200.516c14.647,-0 19.961,5.43 23.227,10.741l0.097,0.173c3.689,6.963 3.792,14.074 3.792,14.145l-0,77.89c-0,9.453 7.692,17.144 17.146,17.144c9.423,-0 16.802,-7.53 16.802,-17.144l-0,-77.89c-0,-2.455 -0.363,-15.383 -7.523,-28.728c-10.096,-19.539 -29.102,-30.277 -53.541,-30.277c-15.745,-0 -18.745,1.451 -29.907,6.849l-7.161,3.443l-0,-4.925c-0,-6.006 -7.228,-8.185 -12.085,-8.185c-4.297,-0 -11.57,1.731 -11.57,8.222l-0,131.491c-0,9.614 7.38,17.144 16.803,17.144c9.42,-0 16.801,-7.53 16.801,-17.144l-0,-77.89c-0,-0.072 0.113,-7.316 4.204,-14.266c3.888,-7.229 11.402,-10.793 22.915,-10.793m44.262,126.292c-12.872,-0 -23.345,-10.471 -23.345,-23.343l-0,-77.89c-0,-0.05 -0.181,-5.734 -3.025,-11.158c-1.687,-2.742 -4.874,-7.703 -17.892,-7.703c-12.017,-0 -15.751,4.358 -17.515,7.635c-3.207,5.455 -3.406,11.176 -3.406,11.231l-0,77.885c-0,12.872 -10.317,23.343 -22.999,23.343c-12.683,-0 -23.001,-10.471 -23.001,-23.343l-0,-131.491c-0,-8.491 7.306,-14.421 17.768,-14.421c7.491,-0 15.059,3.36 17.484,9.832c10.838,-5.234 14.978,-7.014 31.669,-7.014c26.873,-0 47.835,11.929 59.025,33.588c7.642,14.242 8.238,27.801 8.238,31.616l-0,77.89c-0,12.872 -10.319,23.343 -23.001,23.343" style="fill:#fff;fill-rule:nonzero;"/><path d="M402.787,184.088l0,131.492c0,15.453 -29.852,14.721 -29.852,0.036c-13.62,6.537 -16.274,8.466 -33.969,8.466c-25.734,-0 -45.636,-11.323 -56.273,-31.911c-7.547,-14.066 -7.891,-27.449 -7.891,-30.192l0,-77.891c0,-11.323 8.921,-20.244 19.902,-20.244c10.979,-0 20.244,8.921 20.244,20.244l0,77.891c0,0.685 0.342,6.86 3.432,12.694c2.743,4.462 7.205,9.265 20.586,9.265c13.038,-0 17.842,-4.803 20.243,-9.265c3.432,-5.834 3.776,-12.009 3.776,-12.694l0,-77.891c0,-11.323 8.921,-20.244 19.9,-20.244c10.981,-0 19.902,8.921 19.902,20.244" style="fill:#fff;fill-rule:nonzero;"/><path d="M376.035,310.691l0,4.925c0,6.006 7.227,8.185 12.085,8.185c4.296,0 11.568,-1.731 11.568,-8.221l0,-131.492c0,-9.614 -7.381,-17.146 -16.803,-17.146c-9.42,0 -16.8,7.532 -16.8,17.146l0,77.89c0,0.071 -0.114,7.316 -4.205,14.266c-3.889,7.228 -11.403,10.793 -22.914,10.793c-14.647,0 -19.961,-5.43 -23.227,-10.742l-0.098,-0.172c-3.689,-6.963 -3.792,-14.075 -3.792,-14.145l0,-77.89c0,-9.454 -7.691,-17.146 -17.145,-17.146c-9.423,0 -16.803,7.532 -16.803,17.146l0,77.89c0,2.455 0.363,15.381 7.523,28.727c10.096,19.54 29.102,30.278 53.542,30.278c15.743,0 18.744,-1.451 29.907,-6.85l7.162,-3.442Zm12.085,19.309c-7.493,0 -15.061,-3.36 -17.484,-9.833c-10.84,5.235 -14.979,7.014 -31.67,7.014c-26.873,0 -47.836,-11.928 -59.026,-33.589c-7.642,-14.242 -8.238,-27.798 -8.238,-31.614l0,-77.89c0,-12.872 10.319,-23.344 23.002,-23.344c12.872,0 23.344,10.472 23.344,23.344l0,77.89c0,0.05 0.183,5.734 3.025,11.158c1.688,2.742 4.876,7.702 17.893,7.702c12.014,0 15.749,-4.357 17.514,-7.635c3.207,-5.454 3.406,-11.175 3.406,-11.231l0,-77.884c0,-12.872 10.317,-23.344 22.999,-23.344c12.683,0 23.002,10.472 23.002,23.344l0,131.492c0,8.49 -7.307,14.42 -17.767,14.42" style="fill:#fff;fill-rule:nonzero;"/><path d="M178.689,183.715c-0,10.98 -8.921,19.902 -20.244,19.902l-19.902,-0l-0,100.192c-0,10.978 -8.922,19.9 -19.9,19.9c-10.981,-0 -20.246,-8.922 -20.246,-19.9l-0.001,-100.192l-9.949,-0c-10.98,-0 -19.902,-8.922 -19.902,-19.902c0.001,-10.979 8.922,-20.244 19.902,-20.244l9.95,-0l-0.001,-19.9c0.001,-2.401 0.344,-15.44 7.209,-28.823c9.948,-20.244 28.819,-31.223 52.84,-31.223c11.323,-0 20.244,8.921 20.244,19.9c-0,11.323 -8.921,20.244 -20.244,20.244c-10.637,-0 -14.413,4.118 -16.47,8.235c-2.746,4.462 -3.432,9.951 -3.432,11.667l-0,19.9l19.902,-0c11.323,-0 20.244,9.265 20.244,20.244" style="fill:#fff;fill-rule:nonzero;"/><path d="M88.448,166.57c-9.108,-0 -16.803,7.851 -16.803,17.145c-0,9.265 7.538,16.802 16.803,16.802l13.048,-0l-0,103.292c-0,9.106 7.853,16.8 17.147,16.8c9.264,-0 16.801,-7.537 16.801,-16.8l-0,-103.292l23.001,-0c9.614,-0 17.144,-7.38 17.144,-16.802c-0,-9.454 -7.691,-17.145 -17.144,-17.145l-23.001,-0l-0,-22.999c-0,-1.924 0.689,-8.012 3.819,-13.174c3.405,-6.704 9.505,-9.827 19.182,-9.827c9.614,-0 17.144,-7.531 17.144,-17.145c-0,-9.42 -7.53,-16.8 -17.144,-16.8c-22.936,-0 -40.713,10.473 -50.059,29.489c-6.559,12.79 -6.89,25.116 -6.89,27.457l-0,22.999l-13.048,-0Zm30.195,160.238c-12.873,-0 -23.345,-10.318 -23.345,-22.999l-0,-97.093l-6.85,-0c-12.683,-0 -23.001,-10.318 -23.001,-23.001c-0,-12.873 10.318,-23.344 23.001,-23.344l6.85,-0l-0,-16.8c-0,-2.592 0.364,-16.229 7.548,-30.237c10.419,-21.204 30.174,-32.908 55.599,-32.908c12.872,-0 23.343,10.318 23.343,22.999c-0,13.09 -10.253,23.343 -23.343,23.343c-9.199,-0 -12.087,3.297 -13.699,6.522l-0.133,0.238c-2.223,3.613 -2.971,8.41 -2.971,10.043l-0,16.8l16.803,-0c12.872,-0 23.343,10.471 23.343,23.344c-0,12.683 -10.471,23.001 -23.343,23.001l-16.803,-0l-0,97.093c-0,12.681 -10.317,22.999 -22.999,22.999" style="fill:#fff;fill-rule:nonzero;"/><path d="M246.817,103.425l-0,200.384c-0,10.978 -8.921,19.9 -20.244,19.9c-10.981,-0 -19.902,-8.922 -19.902,-19.9l-0,-200.384c-0,-10.979 8.921,-19.9 19.902,-19.9c11.323,-0 20.244,8.921 20.244,19.9" style="fill:#fff;fill-rule:nonzero;"/><path d="M226.573,86.625c-9.266,0 -16.803,7.536 -16.803,16.8l-0,200.384c-0,9.263 7.537,16.799 16.803,16.799c9.614,0 17.144,-7.379 17.144,-16.799l-0,-200.384c-0,-9.42 -7.53,-16.8 -17.144,-16.8m-0,240.183c-12.683,0 -23.001,-10.318 -23.001,-22.999l-0,-200.384c-0,-12.681 10.318,-22.999 23.001,-22.999c12.872,0 23.343,10.318 23.343,22.999l-0,200.384c-0,12.681 -10.471,22.999 -23.343,22.999" style="fill:#fff;fill-rule:nonzero;"/><path d="M526.503,220.087c-5.145,-10.295 -14.41,-16.814 -25.733,-16.814c-9.607,-0 -18.528,6.863 -24.017,16.814l49.75,-0Zm-27.105,103.28c-20.932,-1.03 -39.116,-9.951 -51.469,-25.391c-11.322,-14.411 -17.156,-33.284 -17.156,-54.557c-0,-44.264 31.567,-79.948 69.997,-79.948c19.214,-0 37.058,7.893 50.095,22.646c13.038,14.069 19.902,33.284 19.902,53.87c-0,10.981 -8.921,20.245 -19.902,20.245l-77.888,-0c3.431,10.98 10.981,22.645 28.479,23.333l2.06,-0c5.145,-0 14.754,-0 23.331,-6.177c3.432,-2.058 7.205,-3.088 10.981,-3.088c6.517,-0 13.037,3.088 16.813,8.921c2.401,3.088 3.431,6.863 3.431,10.637c-0,6.519 -3.431,13.382 -9.265,17.156c-16.471,10.979 -33.627,12.695 -43.234,12.695c-2.743,-0 -4.803,-0 -6.175,-0.342" style="fill:#fff;fill-rule:nonzero;"/><path d="M471.503,223.187l60.013,-0c-4.939,-6.807 -9.684,-21.861 -30.746,-23.014c-18.477,-1.009 -24.216,16.362 -29.267,23.014m60.013,-0l-60.013,-0l2.535,-4.596c6.362,-11.532 16.355,-18.418 26.732,-18.418c12.23,-0 22.62,6.753 28.504,18.53l2.242,4.484Zm-30.746,-56.617c-36.888,-0 -66.898,34.475 -66.898,76.849c0,20.706 5.703,38.91 16.494,52.642c11.696,14.62 29.169,23.225 49.184,24.211l0.596,0.088c1.004,0.249 3.053,0.249 5.426,0.249c10.608,-0 26.421,-2.111 41.515,-12.173c4.804,-3.107 7.885,-8.821 7.885,-14.577c0,-2.356 -0.482,-5.781 -2.778,-8.734l-0.155,-0.219c-3.042,-4.7 -8.355,-7.506 -14.211,-7.506c-3.214,-0 -6.421,0.893 -9.282,2.583c-9.358,6.681 -19.546,6.681 -25.031,6.681l-2.06,0c-15.585,-0.611 -26.413,-9.429 -31.437,-25.51l-1.257,-4.024l82.103,0c9.108,0 16.803,-7.85 16.803,-17.142c0,-20.108 -6.774,-38.492 -19.076,-51.766c-12.358,-13.982 -29.324,-21.653 -47.821,-21.653m4.802,160.238c-2.827,0 -4.916,0 -6.601,-0.359c-21.7,-1.14 -40.679,-10.556 -53.462,-26.537c-11.674,-14.856 -17.836,-34.384 -17.836,-56.493c0,-45.793 32.791,-83.047 73.097,-83.047c20.3,0 38.915,8.414 52.417,23.692c13.318,14.369 20.679,34.249 20.679,55.924c0,12.871 -10.319,23.343 -23.002,23.343l-73.474,0c4.61,11.064 12.556,16.68 24.187,17.137l1.938,-0.002c4.807,0 13.755,0 21.521,-5.593l0.218,-0.144c3.85,-2.308 8.198,-3.528 12.574,-3.528c7.922,0 15.142,3.82 19.342,10.225c2.618,3.419 4.001,7.714 4.001,12.433c0,7.806 -4.193,15.561 -10.682,19.759c-16.349,10.897 -33.453,13.19 -44.917,13.19" style="fill:#fff;fill-rule:nonzero;"/><path d="M877.612,183.715c0,10.98 -8.921,19.902 -19.9,19.902l-20.244,-0l0,100.192c0,10.978 -8.921,19.9 -19.902,19.9c-10.978,-0 -19.9,-8.922 -19.9,-19.9l0,-100.192l-20.243,-0c-10.982,-0 -19.903,-8.922 -19.903,-19.902c0,-11.323 8.921,-20.244 19.903,-20.244l20.243,-0l0,-60.046c0,-10.979 8.922,-19.9 19.9,-19.9c10.981,-0 19.902,8.921 19.902,19.9l0,60.046l20.244,-0c10.979,-0 19.9,8.921 19.9,20.244" style="fill:#fff;fill-rule:nonzero;"/><path d="M777.423,166.57c-9.423,-0 -16.803,7.53 -16.803,17.145c-0,9.265 7.537,16.802 16.803,16.802l23.343,-0l-0,103.292c-0,9.263 7.536,16.8 16.8,16.8c9.265,-0 16.803,-7.537 16.803,-16.8l-0,-103.292l23.344,-0c9.264,-0 16.8,-7.537 16.8,-16.802c-0,-9.454 -7.536,-17.145 -16.8,-17.145l-23.344,-0l-0,-63.145c-0,-9.264 -7.538,-16.8 -16.803,-16.8c-9.264,-0 -16.8,7.536 -16.8,16.8l-0,63.145l-23.343,-0Zm40.143,160.238c-12.682,-0 -22.998,-10.318 -22.998,-22.999l-0,-97.093l-17.145,-0c-12.683,-0 -23.002,-10.318 -23.002,-23.001c-0,-12.873 10.319,-23.344 23.002,-23.344l17.145,-0l-0,-56.946c-0,-12.681 10.316,-22.999 22.998,-22.999c12.683,-0 23.002,10.318 23.002,22.999l-0,56.946l17.145,-0c12.682,-0 22.999,10.471 22.999,23.344c-0,12.683 -10.317,23.001 -22.999,23.001l-17.145,-0l-0,97.093c-0,12.681 -10.319,22.999 -23.002,22.999" style="fill:#fff;fill-rule:nonzero;"/><path d="M985.15,182.339c-1.045,12.962 -0.299,27.104 6.639,32.636c8.072,6.435 25.44,-17.313 27.208,-39.234c1.271,-15.778 -2.093,-27.563 -11.808,-29.28c-10.637,-1.881 -20.393,15.472 -22.039,35.878" style="fill:#ef3e4e;fill-rule:nonzero;"/><path d="M1053.86,287.912c-22.782,0 -44.227,-7.417 -62.069,-21.459l-15.265,15.264l-0.183,0.133c-5.5,4.035 -18.36,8.375 -27.655,-4.078c-7.84,-10.503 -2.262,-21.096 1.782,-25.232l15.888,-15.687c-8.496,-15.019 -12.977,-32.068 -12.977,-49.42c0,-26.365 10.02,-52.089 25.525,-65.537c9.433,-8.181 20.538,-11.649 32.138,-10.018c25.843,1.867 41.891,24.135 41.891,58.142c0,30.792 -13.518,49.9 -33.819,69.107l-0.435,0.434c11.507,6.239 24.466,9.523 37.652,9.523c43.574,0 69.399,-29.035 68.444,-72.585c-5.075,-56.137 -61.703,-93.444 -104.283,-94.542c-0.185,-0.004 -9.804,-0.281 -10.849,-0.241c-54.328,1.815 -97.415,36.637 -110.056,85.836c-3.582,11.979 -5.279,24.743 -4.75,37.934c1.001,24.938 9.8,47.72 23.952,66.095c-3.904,11.944 -13.188,29.721 -13.396,36.13c-0.182,5.603 1.126,10.691 5.8,13.862c2.332,1.585 4.718,2.137 6.961,2.136c3.487,-0.003 11.187,-2.932 13.317,-3.626c3.627,-1.185 22.418,-9.904 31.446,-13.499c15.975,7.253 33.84,10.987 52.568,10.235c32.86,-1.319 61.977,-16.178 82.201,-38.982c-13.253,6.451 -28.125,10.075 -43.828,10.075" style="fill:#ef3e4e;fill-rule:nonzero;"/></g></svg>