<?xml version="1.0" standalone="no"?>
<!DOCTYPE svg PUBLIC "-//W3C//DTD SVG 1.1//EN" "http://www.w3.org/Graphics/SVG/1.1/DTD/svg11.dtd" >
<svg xmlns="http://www.w3.org/2000/svg" xmlns:xlink="http://www.w3.org/1999/xlink" version="1.1" viewBox="-10 0 1034 1024">
   <path fill="currentColor"
d="M512 1013q-5 0 -9.5 -2.5t-7.5 -5.5l-480 -713q-3 -5 -3.5 -10.5t1.5 -10.5q3 -5 8 -8t11 -3h960q6 0 11 3t8 8t3 10.5t-5 10.5l-480 713q-3 3 -7.5 5.5t-9.5 2.5zM73 301l439 653l439 -653h-878v0zM512 1013q-6 0 -12 -4t-7 -11l-241 -712q-2 -5 -1.5 -10t3.5 -9
q3 -5 7.5 -7t9.5 -2h480q5 0 9.5 2.5t7.5 6.5t3.5 9t-1.5 10l-239 712q-1 7 -7 11t-12 4zM301 301l211 625l211 -625h-422v0zM992 301h-960q-6 0 -11 -3t-8 -8t-3 -10.5t3 -10.5l149 -248q3 -4 8 -7t11 -3h664q6 0 11 3t8 7l147 248q3 5 3 10.5t-3 10.5t-8 8t-11 3zM70 258
h886l-124 -205h-640zM753 301h-480q-5 0 -9.5 -2t-7.5 -7t-3.5 -9.5t-0.5 -9.5l74 -247q2 -7 8 -11t14 -4h333q6 0 12 4t9 11l75 247q1 5 -0.5 9.5t-4.5 9.5q-5 5 -9.5 7t-9.5 2v0zM301 258h422l-62 -205h-298l-62 205v0z" />
</svg>
