<?xml version="1.0" standalone="no"?>
<!DOCTYPE svg PUBLIC "-//W3C//DTD SVG 1.1//EN" "http://www.w3.org/Graphics/SVG/1.1/DTD/svg11.dtd" >
<svg xmlns="http://www.w3.org/2000/svg" xmlns:xlink="http://www.w3.org/1999/xlink" version="1.1" viewBox="-10 0 1034 1024">
   <path fill="currentColor"
d="M500 32q-69 0 -129.5 26t-105.5 71t-71.5 105.5t-26.5 129.5q0 36 14.5 81t36.5 94q23 50 51.5 102.5t58.5 101.5q30 50 58.5 94t50.5 77t36 52l14 19q2 3 5.5 5t7.5 2t7 -2t6 -5l13.5 -19t36 -52t51 -77t58.5 -94q29 -49 58 -101.5t51 -102.5q23 -49 37 -94t14 -81
q0 -69 -26 -129.5t-71.5 -105.5t-106 -71t-128.5 -26v0zM500 64q62 0 116.5 23.5t95.5 64t64.5 95t23.5 117.5q0 29 -13 71.5t-35 90.5q-22 49 -50 100.5t-58 100.5q-54 90 -95 149t-49 71q-9 -12 -50 -71t-95 -149q-29 -49 -57.5 -100.5t-50.5 -100.5q-22 -48 -35 -90.5
t-13 -71.5q0 -63 24 -117.5t64.5 -95t95 -64t117.5 -23.5v0zM500 128q-50 0 -93.5 19t-76.5 51.5t-51.5 76t-18.5 93.5t18.5 93.5t51.5 76t76.5 51.5t93.5 19q49 0 93 -19t76.5 -51.5t51.5 -76t19 -93.5t-19 -93.5t-51.5 -76t-76.5 -51.5t-93 -19zM500 160q43 0 81 16.5
t66 44.5t44.5 66t16.5 81t-16.5 81t-44.5 66t-66 44.5t-81 16.5t-81 -16.5t-66.5 -44.5t-44.5 -66t-16 -81t16 -81t44.5 -66t66.5 -44.5t81 -16.5zM500 192v0v0h-0.5h-0.5q-3 0 -5.5 1t-4.5 3l-144 133q-3 2 -4 5t-1 7q0 7 4.5 11.5t11.5 4.5v0v0h23v139q0 7 5 11.5t11 4.5
h209q7 0 11.5 -4.5t4.5 -11.5v-139h24v0v0q6 0 11 -4.5t5 -11.5q0 -4 -1.5 -7t-3.5 -5l-35 -32v-25v0v0q0 -7 -4.5 -11.5t-11.5 -4.5v0v0q-6 0 -10 3.5t-6 8.5l-77 -72q-2 -2 -5 -3t-6 -1v0zM500 230l103 95h-206zM411 357h177v123h-45v-84q0 -6 -4.5 -11t-11.5 -5h-55
q-6 0 -11 5t-5 11v84h-45v-123v0zM488 412h23v68h-23v-68z" />
</svg>
