<svg viewBox="0 0 1024 956" version="1.1" xmlns="http://www.w3.org/2000/svg"><path d="M972.803,68.267c-10.24,-39.253 -44.373,-68.267 -85.333,-68.267c-40.96,0 -75.093,29.013 -83.627,68.267l-20.48,0c-8.533,-39.253 -42.667,-68.267 -83.627,-68.267c-40.96,0 -75.093,29.013 -83.627,68.267l-20.48,0c-8.533,-39.253 -42.667,-68.267 -83.627,-68.267c-40.96,0 -75.093,29.013 -83.627,68.267l-20.48,0c-8.533,-39.253 -42.667,-68.267 -83.627,-68.267c-40.96,0 -75.093,29.013 -83.627,68.267l-20.48,0c-8.533,-39.253 -42.667,-68.267 -83.627,-68.267c-40.96,0 -75.093,29.013 -83.627,68.267l-1.707,0c-29.013,0 -51.2,22.187 -51.2,51.2l-0,785.067c-0,29.013 22.187,51.2 51.2,51.2l921.6,0c29.013,0 51.2,-22.187 51.2,-51.2l-0,-785.067c-0,-29.013 -22.187,-51.2 -51.2,-51.2l0.003,-0Zm-85.333,-34.133c22.187,0 40.96,13.653 47.787,34.133l-95.573,0c6.827,-20.48 25.6,-34.133 47.787,-34.133l-0.001,0Zm-187.734,0c22.187,0 40.96,13.653 47.787,34.133l-95.573,0c6.827,-20.48 25.6,-34.133 47.787,-34.133l-0.001,0Zm-187.733,0c22.187,0 40.96,13.653 47.787,34.133l-95.573,0c6.827,-20.48 25.6,-34.133 47.787,-34.133l-0.001,0Zm-187.733,0c22.187,0 40.96,13.653 47.787,34.133l-95.573,0c6.827,-20.48 25.6,-34.133 47.787,-34.133l-0.001,0Zm-187.734,0c22.187,0 40.96,13.653 47.787,34.133l-95.573,0c6.827,-20.48 25.6,-34.133 47.787,-34.133l-0.001,0Zm-102.4,85.333c-0,-8.533 8.533,-17.067 17.067,-17.067l133.12,0c-6.827,20.48 -25.6,34.133 -47.787,34.133c-8.533,0 -17.067,8.533 -17.067,17.067c-0,8.534 8.533,17.067 17.067,17.067c40.96,0 75.093,-29.013 83.627,-68.267l151.893,0c-6.827,20.48 -25.6,34.133 -47.787,34.133c-8.533,0 -17.067,8.533 -17.067,17.067c-0,8.534 8.533,17.067 17.067,17.067c40.96,0 75.093,-29.013 83.627,-68.267l151.893,0c-6.827,20.48 -25.6,34.133 -47.787,34.133c-8.533,0 -17.067,8.533 -17.067,17.067c-0,8.534 8.533,17.067 17.067,17.067c40.96,0 75.093,-29.013 83.627,-68.267l151.893,0c-6.827,20.48 -25.6,34.133 -47.787,34.133c-8.533,0 -17.067,8.533 -17.067,17.067c-0,8.534 8.533,17.067 17.067,17.067c40.96,0 75.093,-29.013 83.627,-68.267l151.893,0c-6.827,20.48 -25.6,34.133 -47.787,34.133c-8.533,0 -17.067,8.533 -17.067,17.067c-0,8.534 8.533,17.067 17.067,17.067c40.96,0 75.093,-29.013 83.627,-68.267l1.707,-0c8.533,-0 17.067,8.533 17.067,17.067l-0,119.467l-955.733,0l-0,-119.467Zm955.734,785.067c-0,8.533 -8.533,17.067 -17.067,17.067l-921.6,0c-8.533,0 -17.067,-8.533 -17.067,-17.067l-0,-631.467l955.733,-0l-0,631.467l0.001,-0Zm-733.867,-426.667l-102.4,0c-10.24,0 -17.067,-6.827 -17.067,-17.067l-0,-102.4c-0,-10.24 6.827,-17.067 17.067,-17.067l102.4,0c10.24,0 17.067,6.827 17.067,17.067l-0,102.4c-0,10.24 -6.827,17.067 -17.067,17.067Zm-85.333,-34.133l68.267,-0l-0,-68.267l-68.267,0l-0,68.267Zm290.133,34.133l-102.4,-0c-10.24,-0 -17.067,-6.827 -17.067,-17.067l-0,-102.4c-0,-10.24 6.827,-17.067 17.067,-17.067l102.4,0c10.24,-0 17.067,6.827 17.067,17.067l-0,102.4c-0,10.24 -6.827,17.067 -17.067,17.067Zm-85.333,-34.133l68.267,-0l-0,-68.267l-68.267,0l-0,68.267Zm290.133,34.133l-102.4,-0c-10.24,-0 -17.067,-6.827 -17.067,-17.067l-0,-102.4c-0,-10.24 6.827,-17.067 17.067,-17.067l102.4,-0c10.24,-0 17.067,6.827 17.067,17.067l-0,102.4c-0,10.24 -6.827,17.067 -17.067,17.067Zm-85.333,-34.133l68.267,-0l-0,-68.267l-68.267,-0l-0,68.267Zm290.133,34.133l-102.4,-0c-10.24,-0 -17.067,-6.827 -17.067,-17.067l-0,-102.4c-0,-10.24 6.827,-17.067 17.067,-17.067l102.4,-0c10.24,-0 17.067,6.827 17.067,17.067l-0,102.4c-0,10.24 -6.827,17.067 -17.067,17.067Zm-85.333,-34.133l68.267,-0l-0,-68.267l-68.267,-0l-0,68.267Zm-529.067,221.866l-102.4,0c-10.24,0 -17.067,-6.827 -17.067,-17.067l-0,-102.4c-0,-10.24 6.827,-17.067 17.067,-17.067l102.4,-0c10.24,-0 17.067,6.827 17.067,17.067l-0,102.4c-0,10.24 -6.827,17.067 -17.067,17.067Zm-85.333,-34.133l68.267,0l-0,-68.267l-68.267,0l-0,68.267Zm290.133,34.133l-102.4,-0c-10.24,-0 -17.067,-6.827 -17.067,-17.067l-0,-102.4c-0,-10.24 6.827,-17.067 17.067,-17.067l102.4,-0c10.24,-0 17.067,6.827 17.067,17.067l-0,102.4c-0,10.24 -6.827,17.067 -17.067,17.067Zm-85.333,-34.133l68.267,0l-0,-68.267l-68.267,0l-0,68.267Zm-119.467,221.867l-102.4,0c-10.24,0 -17.067,-6.827 -17.067,-17.067l-0,-102.4c-0,-10.24 6.827,-17.067 17.067,-17.067l102.4,0c10.24,0 17.067,6.827 17.067,17.067l-0,102.4c-0,10.24 -6.827,17.067 -17.067,17.067Zm-85.333,-34.134l68.267,0l-0,-68.267l-68.267,0l-0,68.267Zm290.133,34.134l-102.4,0c-10.24,0 -17.067,-6.827 -17.067,-17.067l-0,-102.4c-0,-10.24 6.827,-17.067 17.067,-17.067l102.4,-0c10.24,-0 17.067,6.827 17.067,17.067l-0,102.4c-0,10.24 -6.827,17.067 -17.067,17.067Zm-85.333,-34.134l68.267,0l-0,-68.267l-68.267,0l-0,68.267Zm341.333,68.267c-104.107,-0 -187.733,-83.627 -187.733,-187.733c-0,-104.106 83.627,-187.733 187.733,-187.733c104.106,-0 187.733,83.627 187.733,187.733c-0,104.106 -83.627,187.733 -187.733,187.733Zm-0,-341.333c-85.333,0 -153.6,68.267 -153.6,153.6c-0,85.333 68.267,153.6 153.6,153.6c85.333,-0 153.6,-68.267 153.6,-153.6c-0,-85.333 -68.267,-153.6 -153.6,-153.6Zm-17.067,256c-5.12,0 -8.533,-1.707 -11.947,-5.12l-68.267,-68.267c-6.827,-6.827 -6.827,-17.067 -0,-23.893c6.827,-6.826 17.067,-6.827 23.893,0l52.907,52.907l90.453,-136.533c5.12,-8.533 15.36,-10.24 23.893,-5.12c8.533,5.12 10.24,15.36 5.12,23.893l-102.4,153.6c-1.707,5.12 -6.827,8.533 -13.653,8.533c1.707,-0 -0,-0 -0,-0l0.001,-0Z" /></svg>