<?xml version="1.0" standalone="no"?>
<!DOCTYPE svg PUBLIC "-//W3C//DTD SVG 1.1//EN" "http://www.w3.org/Graphics/SVG/1.1/DTD/svg11.dtd" >
<svg xmlns="http://www.w3.org/2000/svg" xmlns:xlink="http://www.w3.org/1999/xlink" version="1.1" viewBox="-10 0 1034 1024">
   <path fill="currentColor"
d="M199 226h-2h-2q-3 1 -5.5 3t-4.5 5l-151 263q-1 3 -1.5 6t0.5 6q0 3 2 5.5t5 4.5l98 57q3 1 6 1.5t6 -0.5q4 0 6.5 -2t3.5 -5l36 -63l57 33q0 28 11 54t31 46q-6 11 -6 23.5t6 23.5q7 13 20 17.5t26 3.5v14t4 13q9 17 27.5 22t35.5 -3v10t3 10q10 17 29.5 22.5t37.5 -4.5
l34 -20l34 20q18 10 37.5 4.5t29.5 -22.5q3 -5 3 -10v-10q17 8 35.5 3t27.5 -22q4 -6 4 -13v-14q13 1 26 -3.5t20 -17.5q7 -12 4.5 -25.5t-9.5 -24.5q6 -3 12 -7t10 -10q0 -1 0.5 -1.5t0.5 -1.5q2 -1 3 -2.5t2 -3.5q10 -16 14.5 -34.5t4.5 -37.5l57 -32l36 63q2 3 5.5 5.5
t8.5 2.5q2 0 4 -0.5t4 -1.5l98 -57q4 -2 6 -6t2 -8q0 -2 -0.5 -4t-1.5 -4l-151 -263q-3 -4 -6.5 -6t-7.5 -2h-1v0q-2 0 -4 0.5t-3 1.5l-99 57q-3 2 -5.5 5.5t-2.5 8.5q0 2 1 4l2 4l4 7l-56 33q-20 -11 -43 -16t-45 -2q-7 1 -14 2.5t-14 3.5t-13.5 5t-12.5 7v0v0v0v0l-4 3
l-3 1l-7 -4q-13 -7 -26.5 -11.5t-27.5 -5.5v0q-23 -3 -45.5 1.5t-41.5 15.5l-57 -33l4 -7q2 -3 2.5 -6t-0.5 -6q-1 -4 -3 -6.5t-4 -3.5l-99 -57q-2 -1 -4 -1.5t-4 -0.5v0zM205 264l71 40l-136 236l-70 -41l135 -235v0zM819 264l135 235l-70 41l-136 -235l71 -41v0zM733 342
l79 137l-11 6l-34 20q-2 -9 -5.5 -18t-8.5 -17v-1v0v-0.5v-0.5l-0.5 -0.5l-0.5 -0.5l-39 -67q-5 -9 -11 -17t-14 -15l1 -1l17 -9l27 -16v0zM291 342l27 16l17 10q-7 7 -13 15t-11 17l-39 67q-5 9 -8.5 18.5t-6.5 19.5l-45 -26l79 -137v0zM598 360q16 1 31 6.5t28 15.5
q8 7 15.5 15.5t13.5 18.5l38 67q11 19 14 38.5t-1 38.5q-2 -2 -4.5 -4t-4.5 -3l-131 -76q0 -7 -1.5 -14.5t-4.5 -14.5q0 -1 -0.5 -1.5t-0.5 -1.5v0v0h-1v-1l-0.5 -0.5l-0.5 -0.5q-1 -2 -2 -3.5t-3 -3.5t-4 -3.5t-4 -3.5v0v0q-13 -9 -29.5 -10t-31.5 7v0.5v0.5h-1l-72 42
l-1 0.5t-2 0.5l-1 1q-12 7 -25.5 3.5t-24.5 -13.5l43 -25l44 -26v0v0v0l47 -27v0v0v0v0l14 -8q15 -9 31 -12.5t32 -2.5v0zM426 361q13 -1 26.5 1.5t26.5 7.5l-21 12l-0.5 0.5l-0.5 0.5l-44 25l-61 36q-4 2 -6 5.5t-2 8.5q0 2 0.5 4t1.5 4q17 29 48 39t59 -6l72 -42v0h1l3 -2
l1 -1q3 -1 5 -2t4 -1q5 -1 9.5 0t7.5 4q1 1 2.5 2t1.5 3q-6 0 -10 4.5t-4 11.5q0 4 2.5 8t6.5 6l14 8v0v0q1 1 1.5 1t1.5 1l139 80q7 4 8.5 11t-1.5 13q-4 7 -10.5 8.5t-13.5 -2.5l-172 -99q-1 -1 -3 -1.5t-5 -0.5q-6 0 -11 4.5t-5 11.5q0 4 2.5 7.5t5.5 5.5l172 100v0v0
l17 10q6 3 8 10t-2 13q-4 7 -10.5 8.5t-12.5 -2.5l-189 -109q-1 -1 -3 -1.5t-4 -0.5q-7 0 -11.5 5t-4.5 11q0 5 2 8.5t5 5.5l172 100q7 3 8.5 10t-1.5 13q-4 7 -10.5 8.5t-13.5 -2.5l-33 -19l-30 -17l-142 -82q-1 -1 -3 -2t-5 -1q-6 0 -11 5t-5 11q0 5 2.5 8.5t5.5 5.5
l172 100q7 4 8.5 10.5t-1.5 13.5q-4 6 -10.5 8t-13.5 -2l-162 -94v0v0v0v0l-10 -5l-51 -30q-2 -1 -4 -3t-5 -4q-1 -2 -3.5 -4t-5.5 -3q-29 -25 -35.5 -64t13.5 -74l39 -67q15 -25 38 -39.5t50 -15.5v0zM126 465v0v0q-6 0 -10 2.5t-7 6.5q-1 3 -1.5 5t-0.5 5q0 5 2.5 9.5
t6.5 6.5q2 2 4.5 2.5t5.5 0.5q5 0 9 -2.5t7 -6.5q1 -3 1.5 -5t0.5 -5q0 -5 -2.5 -9.5t-6.5 -6.5q-2 -2 -4.5 -2.5t-4.5 -0.5v0zM898 465q-2 0 -4.5 0.5t-4.5 2.5q-4 2 -6.5 6.5t-2.5 9.5q0 3 0.5 5t1.5 5q3 4 7 6.5t9 2.5q3 0 5.5 -0.5t4.5 -2.5q4 -2 6.5 -6.5t2.5 -9.5
q0 -3 -0.5 -5t-1.5 -5q-3 -4 -7 -6.5t-10 -2.5v0v0v0zM321 661q1 0 1.5 0.5t0.5 1.5l25 14h-1l-1 1q-6 3 -12.5 1.5t-10.5 -8.5q-1 -2 -1.5 -5t-0.5 -5v0zM380 695l34 20l-18 11q-7 3 -13.5 1.5t-10.5 -8.5q-3 -6 -1.5 -13t8.5 -10l0.5 -0.5l0.5 -0.5v0zM446 733l34 20
l-18 11q-7 4 -13.5 2t-10.5 -8q-3 -7 -1.5 -13.5t8.5 -10.5h0.5t0.5 -1v0z" />
</svg>
