<?xml version="1.0" standalone="no"?>
<!DOCTYPE svg PUBLIC "-//W3C//DTD SVG 1.1//EN" "http://www.w3.org/Graphics/SVG/1.1/DTD/svg11.dtd" >
<svg xmlns="http://www.w3.org/2000/svg" xmlns:xlink="http://www.w3.org/1999/xlink" version="1.1" viewBox="-10 0 1044 1024">
   <path fill="currentColor"
d="M205 777q-14 0 -24 -10.5t-10 -24.5t10 -24t24 -10t24 10t10 24t-10 24.5t-24 10.5v0zM802 777q-14 0 -24 -10.5t-10 -24.5t10 -24t24 -10t24 10t10 24t-10 24.5t-24 10.5v0zM768 623h-34q-8 0 -12.5 -4.5t-4.5 -12.5t4.5 -12.5t12.5 -4.5h34q8 0 12.5 4.5t4.5 12.5
t-4.5 12.5t-12.5 4.5zM1007 640h-17v-102q0 -7 -5.5 -12t-11.5 -5h-17v-239h17q6 0 11.5 -5.5t5.5 -11.5v-69q0 -6 -5.5 -11.5t-11.5 -5.5h-939q-14 0 -24 10t-10 24v512q0 14 10 24t24 10h70q7 36 34.5 61t66.5 25q38 0 66 -25t34 -61h396q7 36 35 61t66 25q39 0 66.5 -25
t34.5 -61h19q0 7 5 12.5t12 5.5h68q6 0 11.5 -5.5t5.5 -12.5v-102q0 -6 -5.5 -11.5t-11.5 -5.5v0zM205 811q-28 0 -48 -20t-20 -49q0 -28 20 -48t48 -20t48 20t20 48q0 29 -20 49t-48 20v0zM802 811q-28 0 -48 -20t-20 -49q0 -28 20 -48t48 -20t48 20t20 48q0 29 -20 49
t-48 20v0zM922 657v68h-19v-0.5v-0.5v0v0v0v-2.5v-1.5t-1 -3t-1 -4v-1.5v-1.5t-1 -2.5t-1 -2.5t-0.5 -2.5t-0.5 -2.5v-1v-1v0v0q0 -1 -1 -1.5t-1 -1.5q0 -2 -1 -2.5t-1 -1.5q-1 -2 -2.5 -4t-2.5 -4q-2 -4 -5 -7l-5 -5q-1 -2 -3.5 -4t-3.5 -3t-3 -2.5t-4 -2.5q-1 -2 -3 -3
l-4 -2q-1 -2 -3.5 -3t-4.5 -2q-1 -2 -3.5 -2.5t-3.5 -1.5q-1 0 -1.5 -1t-1.5 -1q-2 0 -3 -0.5t-2 -0.5h-0.5h-1.5v0v0h-1h-1h-1h-2h-2h-2v0v0q-2 0 -4 -0.5t-4 -1.5h-5.5h-4.5h-5.5h-5.5h-4t-4 2v0v0h-2h-2h-1.5h-1.5h-1h-1v0v0v0h-1q-2 0 -3 0.5t-3 0.5q-1 0 -2 0.5t-1 1.5
q-1 0 -3.5 1t-3.5 3q-1 1 -3.5 2t-4.5 3q-3 1 -4.5 2t-2.5 3q-1 1 -3.5 2.5t-3.5 2.5q-3 1 -4.5 3t-2.5 4q-2 2 -5 5.5t-5 6.5q-1 1 -2.5 3.5t-2.5 4.5q0 1 -1 1.5t-1 2.5q0 1 -1 1.5t-1 1.5v0v0v1v1l-0.5 2t-0.5 3t-1 2.5t-1 2.5v1.5v1.5q0 2 -1 4t-1 3v1v3v0v0v0v0.5v0.5
h-403v-0.5v-0.5v-2.5v-1.5t-0.5 -3t-0.5 -4v-1.5v-1.5t-1 -2.5t-1 -2.5t-1 -2.5t-1 -2.5v-1v-1q-1 -1 -1.5 -3.5t-1.5 -3.5q-1 -2 -2.5 -4t-2.5 -4q-3 -4 -5.5 -7t-4.5 -5l-4 -4l-3 -3q-2 -1 -4 -2.5t-3 -2.5q-1 -2 -3.5 -3t-3.5 -2q-1 -2 -3.5 -3t-4.5 -2q-2 -2 -4 -2.5
t-3 -1.5q-2 0 -2 -1t-2 -1q-1 0 -2.5 -0.5t-3.5 -0.5v0v0q-3 0 -4.5 -1t-4.5 -1h-4.5t-4.5 -2h-4.5h-5.5h-4.5h-5.5t-4.5 0.5l-4.5 1.5q-2 0 -4 1t-4 1v0v0q-1 0 -2.5 0.5t-4.5 0.5q-1 0 -2 0.5t-1 1.5q-2 0 -4 1t-3 3q-1 1 -3.5 2t-5.5 3q-2 1 -3.5 2t-3.5 3q-1 1 -3 2.5
t-3 2.5q-3 1 -4.5 3t-2.5 4q-3 2 -5.5 5.5t-4.5 6.5q-2 1 -3 3.5t-3 4.5q-1 1 -1.5 2.5l-1.5 4.5v1v1q0 1 -1 2.5t-1 2.5t-0.5 2.5t-0.5 2.5v1.5v1.5q0 2 -1 4t-1 3v1v3v0.5v0.5h-77v-68h34q7 0 12 -5.5t5 -11.5t-5 -11.5t-12 -5.5h-34v-17h34q7 0 12 -5.5t5 -11.5
q0 -7 -5 -12t-12 -5h-34v-359h922v34h-171q-28 0 -48 20.5t-20 48.5v170q0 29 20 49t48 20h171v85h-17q-7 0 -12 5.5t-5 11.5v0zM785 521q-14 0 -24 -10.5t-10 -24.5v-170q0 -14 10 -24t24 -10h137v239h-137v0zM990 742h-34v-68h34v68v0zM239 435h-137q-7 0 -12 -4.5
t-5 -12.5v-136q0 -8 5 -12.5t12 -4.5h137q8 0 12.5 4.5t4.5 12.5v136q0 8 -4.5 12.5t-12.5 4.5zM119 401h103v-102h-103v102v0zM444 435h-137q-7 0 -12 -4.5t-5 -12.5v-136q0 -8 5 -12.5t12 -4.5h137q7 0 12 4.5t5 12.5v136q0 8 -5 12.5t-12 4.5v0zM324 401h103v-102h-103
v102v0zM649 435h-137q-8 0 -12.5 -4.5t-4.5 -12.5v-136q0 -8 4.5 -12.5t12.5 -4.5h137q7 0 12 4.5t5 12.5v136q0 8 -5 12.5t-12 4.5zM529 401h102v-102h-102v102z" />
</svg>
