<?xml version="1.0" standalone="no"?>
<!DOCTYPE svg PUBLIC "-//W3C//DTD SVG 1.1//EN" "http://www.w3.org/Graphics/SVG/1.1/DTD/svg11.dtd" >
<svg xmlns="http://www.w3.org/2000/svg" xmlns:xlink="http://www.w3.org/1999/xlink" version="1.1" viewBox="-10 0 1034 1024">
   <path fill="currentColor"
d="M747 1024h-470q-44 0 -75 -31.5t-31 -75.5v-810q0 -44 31 -75.5t75 -31.5h470q44 0 75 31.5t31 75.5v810q0 44 -31 75.5t-75 31.5zM277 43q-26 0 -45 18.5t-19 45.5v810q0 27 19 45.5t45 18.5h470q26 0 45 -18.5t19 -45.5v-810q0 -27 -19 -45.5t-45 -18.5h-470zM832 213
h-640q-9 0 -15 -6t-6 -15t6 -15t15 -6h640q9 0 15 6t6 15t-6 15t-15 6zM832 853h-640q-9 0 -15 -6t-6 -15t6 -15t15 -6h640q9 0 15 6t6 15t-6 15t-15 6zM512 875q-18 0 -30.5 12.5t-12.5 29.5q0 18 12.5 30.5t30.5 12.5t30.5 -12.5t12.5 -30.5q0 -17 -12.5 -29.5
t-30.5 -12.5v0zM619 128h-214q-9 0 -15 -6.5t-6 -14.5q0 -9 6 -15.5t15 -6.5h214q9 0 15 6.5t6 15.5q0 8 -6 14.5t-15 6.5z" />
</svg>
