<?xml version="1.0" standalone="no"?>
<!DOCTYPE svg PUBLIC "-//W3C//DTD SVG 1.1//EN" "http://www.w3.org/Graphics/SVG/1.1/DTD/svg11.dtd" >
<svg xmlns="http://www.w3.org/2000/svg" xmlns:xlink="http://www.w3.org/1999/xlink" version="1.1" viewBox="-10 0 1045 1024">
   <path fill="currentColor"
d="M68 742h1t-1 0v0zM1009 271q-9 -10 -20.5 -17t-25.5 -8l-41 -4v-80q0 -28 -20.5 -48t-48.5 -20h-785q-28 0 -48 20t-20 48v546q0 23 13.5 41t34.5 24q0 26 17 46t44 22l789 89h3h4q25 0 45 -17t23 -44l51 -548q1 -13 -2.5 -26t-12.5 -24v0zM34 162q0 -14 10 -24t24 -10
h785q14 0 24 10t10 24v17h-853v-17v0zM34 213h853v103h-853v-103v0zM34 708v-358h853v358q0 14 -10 24t-24 10h-783v0h-2v0v0h-1q-15 -1 -24 -10.5t-9 -23.5v0zM990 317l-51 548q-2 13 -12 22t-22 9h-2.5h-1.5l-788 -89q-13 -1 -21.5 -10t-9.5 -20h771q28 0 48.5 -20.5
t20.5 -48.5v-432l37 4q7 1 12.5 4t9.5 8q5 6 7 12.5t2 12.5v0zM819 674h-273q-8 0 -12.5 -4.5t-4.5 -12.5v-154q0 -7 4.5 -12t12.5 -5h273q8 0 12.5 5t4.5 12v154q0 8 -4.5 12.5t-12.5 4.5zM563 640h239v-119h-239v119zM222 452h-137q-7 0 -12 -4.5t-5 -12.5q0 -7 5 -12
t12 -5h137q8 0 12.5 5t4.5 12q0 8 -4.5 12.5t-12.5 4.5zM427 452h-137q-8 0 -12.5 -4.5t-4.5 -12.5q0 -7 4.5 -12t12.5 -5h137q7 0 12 5t5 12q0 8 -5 12.5t-12 4.5v0zM307 521h-222q-7 0 -12 -5t-5 -13q0 -7 5 -12t12 -5h222q8 0 12.5 5t4.5 12q0 8 -4.5 13t-12.5 5z
M427 521h-52q-7 0 -12 -5t-5 -13q0 -7 5 -12t12 -5h52q7 0 12 5t5 12q0 8 -5 13t-12 5z" />
</svg>
