<?xml version="1.0" standalone="no"?>
<!DOCTYPE svg PUBLIC "-//W3C//DTD SVG 1.1//EN" "http://www.w3.org/Graphics/SVG/1.1/DTD/svg11.dtd" >
<svg xmlns="http://www.w3.org/2000/svg" xmlns:xlink="http://www.w3.org/1999/xlink" version="1.1" viewBox="-10 0 1034 1024">
   <path fill="currentColor"
d="M917 1024h-298q-9 0 -15.5 -6.5t-6.5 -14.5v-982q0 -8 6.5 -14.5t15.5 -6.5h298q9 0 15.5 6.5t6.5 14.5v982q0 8 -6.5 14.5t-15.5 6.5v0zM640 981h256v-938h-256v938zM619 171h106v42h-106v-42zM619 299h106v42h-106v-42zM619 427h106v42h-106v-42zM619 555h106v42h-106
v-42zM619 683h106v42h-106v-42zM619 811h106v42h-106v-42zM320 981h-85q-44 0 -75.5 -31t-31.5 -75v-619q0 -3 1 -6t3 -6l128 -192q6 -9 17.5 -9t17.5 9l128 192q2 3 3 6t1 6v619q0 44 -31.5 75t-75.5 31zM171 262v613q0 26 18.5 45t45.5 19h85q26 0 45 -19t19 -45v-613
l-107 -160l-106 160v0zM405 853h-256q-9 0 -15 -6t-6 -15t6 -15t15 -6h256q9 0 15.5 6t6.5 15t-6.5 15t-15.5 6v0zM405 768h-256q-9 0 -15 -6.5t-6 -14.5q0 -9 6 -15.5t15 -6.5h256q9 0 15.5 6.5t6.5 15.5q0 8 -6.5 14.5t-15.5 6.5v0zM235 768q-9 0 -15.5 -6.5t-6.5 -14.5
v-406q0 -8 6.5 -14.5t15.5 -6.5t15 6.5t6 14.5v406q0 8 -6 14.5t-15 6.5v0zM320 768q-9 0 -15 -6.5t-6 -14.5v-406q0 -8 6 -14.5t15 -6.5t15 6.5t6 14.5v406q0 8 -6 14.5t-15 6.5v0zM213 149h128v43h-128v-43v0zM213 363q-35 0 -60 -25t-25 -61q0 -8 6 -14.5t15 -6.5
t15.5 6.5t6.5 14.5q0 18 12.5 30.5t29.5 12.5q18 0 30.5 -12.5t12.5 -30.5q0 -8 6 -14.5t15 -6.5t15.5 6.5t6.5 14.5q0 36 -25 61t-61 25v0zM341 363q-35 0 -60 -25t-25 -61q0 -8 6 -14.5t15 -6.5t15.5 6.5t6.5 14.5q0 18 12.5 30.5t29.5 12.5q18 0 30.5 -12.5t12.5 -30.5
q0 -8 6 -14.5t15 -6.5t15.5 6.5t6.5 14.5q0 36 -25 61t-61 25v0z" />
</svg>
