<?xml version="1.0" standalone="no"?>
<!DOCTYPE svg PUBLIC "-//W3C//DTD SVG 1.1//EN" "http://www.w3.org/Graphics/SVG/1.1/DTD/svg11.dtd" >
<svg xmlns="http://www.w3.org/2000/svg" xmlns:xlink="http://www.w3.org/1999/xlink" version="1.1" viewBox="-10 0 1051 1024">
   <path fill="currentColor"
d="M1007 1024h-990q-7 0 -12 -5t-5 -12v-307q0 -7 5 -12t12 -5h69v-36q0 -32 15.5 -59.5t42.5 -43.5q6 -3 13 -7l14 -8v-239q0 -44 23.5 -81t63.5 -57q-1 -40 23 -71.5t73 -52.5q4 -2 14 -5t20 2q1 1 2 1.5t2 0.5q3 -3 7.5 -6t8.5 -5q21 -11 51 -9t70 16q44 16 70.5 50.5
t28.5 78.5q40 18 64.5 56t24.5 82v239q7 4 14 7.5t13 7.5q27 16 42.5 43.5t15.5 59.5v36h42q6 -6 12.5 -9.5t13.5 -5.5l1 -3q0 -7 5 -12t13 -4q7 0 11.5 5.5t4.5 12.5v1q4 1 8.5 3t8.5 4l5 -4q5 -5 12 -5t12 5q2 2 3.5 5t1.5 7h51q7 0 12 5t5 12v307q0 7 -5 12t-12 5v0z
M161 574q-19 11 -30 30.5t-11 42.5v36h34v-52q0 -21 15 -36t36 -15h136l-25 -75q-33 8 -77.5 28.5t-77.5 40.5v0zM585 195h0.5h0.5v-1.5v-0.5q-4 -6 -31.5 -3t-46.5 6q-24 3 -47.5 6t-44.5 1q-23 -3 -41 -11t-26 -20q-1 -2 -2 -3t-1 -3q-9 3 -18.5 7.5t-16.5 11.5
q-3 3 -4.5 5.5t-1.5 3.5q2 3 3.5 6.5t3.5 8.5q2 4 1 9t-5 9l-3 3q-3 2 -6 5.5t-3 6.5q0 17 5 34t13 21q4 2 6.5 6t3.5 9q1 26 13.5 58.5t16.5 42.5q26 23 44.5 33t26.5 11q3 -1 8 -2t11 -1t11 1t8 2q9 -4 30 -15.5t38 -27.5q4 -10 16.5 -43t14.5 -59q0 -5 2.5 -8.5t5.5 -5.5
q9 -5 14 -22.5t5 -33.5q0 -3 -3 -6.5t-6 -5.5l-3 -3q-3 -3 -4 -7t-1 -8q2 -6 5 -10t8 -7v0zM381 475q-4 -2 -8 -5t-8 -5q-1 2 -2 5l-2 6q-3 5 -6 9t-7 7l29 88h17l12 -42l-25 -24q-3 -3 -4.5 -7t-0.5 -9l5 -23v0zM438 521q3 3 7.5 3t7.5 -3l26 -25l-2 -8q-5 2 -8.5 3t-6.5 1
q-1 0 -3 -0.5t-4 -1.5q-1 0 -4 -1t-7 -1q-3 0 -5.5 0.5t-3.5 1.5t-3.5 1.5t-4.5 0.5q-3 0 -6.5 -1t-7.5 -2l-2 7zM430 580h31l-6 -23q-3 1 -5 1h-5h-4.5t-4.5 -1l-6 23v0zM527 479q-2 -4 -3.5 -7.5t-2.5 -7.5l-6 4l-6 4l6 26q1 4 -0.5 8.5t-4.5 7.5l-25 24l11 42h18l28 -84
q-4 -3 -8 -7.5t-7 -9.5v0zM526 614h-321q-7 0 -12 5t-5 12v291h512v-291q0 -7 -5 -12t-12 -5h-157v0zM276 211q-2 -2 -3 -4t-3 -3q-2 -3 -4 -6.5t-4 -8.5q-26 16 -41.5 42.5t-15.5 58.5v222q32 -16 64 -28t56 -16l2.5 -3t4.5 -8q1 -5 0.5 -10t-2.5 -9v-1v0l-1 -1v0
l-2.5 -2.5t-1.5 -2.5q-1 -2 -8.5 -19.5t-14.5 -41.5h-1v1q-2 2 -5 3t-7 1h-3t-3 -1q-2 -1 -3.5 -1.5t-2.5 -1.5q-1 -2 -2 -3.5t-1 -2.5q-1 -2 -1.5 -3.5t-0.5 -3.5q0 -1 0.5 -3t1.5 -3q0 -2 1 -3t2 -3q3 -3 7.5 -4t9.5 0l-2 -10l-2 -10q-20 -16 -24 -44t-4 -36
q0 -10 4.5 -18t9.5 -13v0zM517 56q-42 -16 -64 -15t-29 5q-6 3 -9.5 7.5t-5.5 10.5q-2 5 -6.5 8.5t-10.5 3.5v0v0q-6 -1 -10.5 -4.5t-5.5 -8.5l-1.5 -4.5t-1.5 -1.5l-1.5 0.5t-3.5 1.5q-41 18 -59.5 42t-16.5 56q15 -14 36.5 -21t32.5 -6q4 0 7.5 2t5.5 5t3 7t0 7
q0 3 10.5 9t32.5 9q17 1 39 -1.5t44 -5.5q28 -4 51.5 -6t39.5 3q0 -41 -24 -67t-53 -36v0zM683 290q0 -31 -15.5 -58t-42.5 -43q-1 9 -3.5 14.5t-4.5 9.5q-1 1 -1 2t-1 2v0v1q3 4 5.5 10t2.5 14q0 7 -4 35t-24 45q-1 5 -1.5 10t-2.5 10q2 -1 4.5 -1t4.5 1h1.5t1.5 1
q1 0 1.5 0.5t1.5 0.5l1.5 1.5t1.5 0.5q1 2 2 3t1 3q1 1 1 3v3q0 4 -1 7t-3 6q-3 2 -6 3t-7 1q-3 0 -6 -1t-5 -3l-1 -1v0q-7 23 -15 41t-8 20l-2 2l-2 2q0 1 -0.5 1t-0.5 1q-5 11 -1.5 20t6.5 11q2 0 3.5 0.5t2.5 0.5h1l1 1v0v0q24 5 54 16t60 26v-222v0zM768 647
q0 -23 -11 -42.5t-30 -31.5q-33 -19 -76 -38.5t-77 -28.5l-24 74h133q21 0 36 15t15 36v52h34v-36v0zM888 700q-23 0 -29 18.5t-6 32.5q0 18 5 36.5t12 31.5h35q7 -13 12 -31.5t5 -36.5q0 -14 -6 -32.5t-28 -18.5v0zM914 853h-75l12 69h73l12 -69h-22v0zM990 717h-39
q2 7 3.5 15.5t1.5 18.5q7 0 12 5t5 12t-5 12t-12 5h-4q-2 9 -4.5 17.5t-5.5 16.5h14q4 0 7 1.5t6 4.5q2 3 3 6.5t1 7.5l-17 102q-1 7 -6 11t-11 4h-103q-6 0 -10.5 -4t-5.5 -11l-18 -102q0 -4 1 -7.5t3 -6.5q3 -3 6.5 -4.5t6.5 -1.5h14q-2 -4 -3.5 -9t-3.5 -10q-1 1 -3 1.5
t-4 0.5q-3 0 -6.5 -1.5t-5.5 -3.5q-5 -5 -5 -12t6 -12l12 -12q0 -3 -0.5 -5.5t-0.5 -4.5q0 -7 1 -13l2 -12l-10 -9h-78v102h17q4 0 7.5 2t6.5 5q2 4 3 8t-1 8l-34 102v0.5v0.5l-0.5 0.5t-0.5 1.5q-1 0 -1.5 1t-0.5 2q-1 0 -1.5 0.5l-0.5 0.5l-1.5 1.5l-1.5 1.5h-1.5t-0.5 1
q-1 0 -2.5 0.5t-3.5 0.5v0v0v0v0h-546v0v0v0v0q-2 0 -3.5 -0.5t-2.5 -0.5l-1 -1h-1q-1 -1 -2 -1.5t-1 -1.5q-1 0 -1 -0.5t-1 -0.5q0 -1 -1 -2l-1 -1q0 -1 -0.5 -1.5l-0.5 -0.5v-0.5v-0.5l-34 -102q-2 -4 -1.5 -8t3.5 -8q2 -3 6 -5t8 -2h17v-102h-120v273h956v-273v0z
M899 797q-3 3 -6 4t-6 1q-4 0 -7 -1t-5 -4q-2 -1 -3 -2.5t-1 -2.5q-1 -2 -1.5 -3.5t-0.5 -3.5t0.5 -3.5t1.5 -2.5q0 -2 1 -3.5t3 -2.5q1 -1 2.5 -2t2.5 -2q5 -2 10 -1t9 5q1 1 2 2.5t1 3.5q1 1 1.5 2.5t0.5 3.5t-0.5 3.5t-1.5 3.5q0 1 -1 2.5t-2 2.5v0zM899 746q-3 2 -6 3.5
t-6 1.5q-4 0 -7 -1.5t-5 -3.5q-2 -1 -3 -2.5t-1 -3.5q-1 -1 -1.5 -2.5t-0.5 -3.5q0 -1 0.5 -2t0.5 -2v-1t1 -2l0.5 -1t0.5 -2q1 0 1.5 -1t1.5 -1q1 -1 2.5 -2t2.5 -2q5 -2 10 -1t9 5q2 2 3.5 5.5t1.5 6.5q0 2 -0.5 3.5t-1.5 2.5q0 2 -1 3.5t-2 2.5v0zM584 415q3 -3 7.5 -4.5
t8.5 -0.5q1 0 1.5 0.5t1.5 0.5t1.5 0.5l1.5 1.5q1 0 1.5 0.5l1.5 1.5t2 2.5t1 2.5q1 2 1 3.5v3.5q0 3 -1 6t-3 6q-3 2 -6 3.5t-7 1.5q-3 0 -6 -1.5t-5 -3.5q-3 -3 -4.5 -6t-1.5 -6q0 -2 0.5 -3.5t1.5 -3.5q0 -1 1 -2.5t3 -2.5h-1zM660 244q2 2 3.5 5.5t1.5 6.5t-1.5 6.5
t-3.5 5.5q-3 3 -6 4t-6 1q-4 0 -7 -1t-5 -4q-3 -2 -4 -5.5t-1 -6.5t1 -6.5t4 -5.5q4 -5 11.5 -5t12.5 5zM636 312q4 -5 11.5 -5t12.5 5q1 1 2 2.5t2 3.5q0 1 0.5 3t0.5 3q0 2 -0.5 3.5t-0.5 3.5q-1 1 -2 2.5t-2 2.5q-3 3 -6 4t-6 1q-4 0 -7 -1t-5 -4q-3 -2 -4 -5t-1 -7v-3
t1 -3q1 -2 1.5 -3.5t2.5 -2.5zM636 380q1 -1 2.5 -2t2.5 -1q3 -1 6.5 -1t6.5 1q2 0 3.5 1t2.5 2q2 3 3.5 6t1.5 7q0 3 -1.5 6t-3.5 6q-3 2 -6 3.5t-6 1.5q-4 0 -7 -1.5t-5 -3.5q-3 -3 -4 -6t-1 -6v-3.5t1 -3.5l1.5 -3t2.5 -3v0zM641 445q3 -1 6.5 -1t6.5 1q2 1 3.5 2t2.5 2
q2 2 3.5 5t1.5 7q0 1 -0.5 3t-1.5 3q0 2 -1 3.5t-2 2.5q-3 2 -6 3.5t-6 1.5q-4 0 -7 -1.5t-5 -3.5q-3 -3 -4 -6t-1 -6q0 -4 1 -7t4 -5q1 -1 2.5 -2t2.5 -2v0zM250 473q-2 2 -5 3.5t-7 1.5q-3 0 -6.5 -1.5t-5.5 -3.5q-1 -1 -2 -2.5t-2 -3.5q0 -1 -0.5 -3t-0.5 -3
q0 -2 0.5 -3.5t0.5 -3.5q1 -1 2 -2.5t2 -2.5l1.5 -1.5t1.5 -0.5q0 -1 1 -1.5t2 -0.5l1 -0.5t2 -0.5q4 -1 8 0.5t7 4.5q1 1 2 2.5t2 2.5q1 2 1 3.5v3.5v3t-1 3q-1 2 -2 3.5t-2 2.5zM250 405q-2 2 -5 3.5t-7 1.5q-3 0 -6.5 -1.5t-5.5 -3.5q-1 -2 -2 -3t-2 -3q0 -2 -0.5 -3.5
t-0.5 -2.5q0 -2 0.5 -3.5t0.5 -3.5q1 -2 2 -3t2 -3q5 -4 12 -4t12 4q3 3 4 6t1 7v2.5t-1 3.5t-2 3t-2 3v0zM250 336q-2 3 -5 4t-7 1q-3 0 -6.5 -1t-5.5 -4q-1 -1 -2 -2.5t-2 -2.5q0 -2 -0.5 -3.5t-0.5 -3.5q0 -1 0.5 -3t0.5 -3q1 -2 2 -3.5t2 -2.5q1 0 1.5 -1t1.5 -1l1 -0.5
t2 -0.5q0 -1 1 -1h2q4 -1 8 0t7 4t4 6t1 6v3.5t-1 3.5q-1 1 -2 2.5t-2 2.5v0zM238 273q-2 0 -3.5 -0.5t-2.5 -0.5q-2 -1 -3.5 -2t-2.5 -2q-2 -2 -3.5 -5.5t-1.5 -6.5t1.5 -6.5t3.5 -5.5q5 -5 12 -5t12 5q3 2 4 5.5t1 6.5t-1 6.5t-4 5.5q-2 3 -5 4t-7 1v0zM301 415q3 2 4 5
t1 7q0 3 -1 6t-4 6q-2 2 -5 3.5t-7 1.5q-1 0 -3 -0.5t-3 -1.5q-2 0 -3.5 -1t-2.5 -2q-2 -3 -3.5 -6t-1.5 -6q0 -4 1.5 -7t3.5 -5q5 -5 12.5 -5t11.5 5v0zM444 819q-21 0 -36 -15t-15 -36t15 -36t36 -15t36 15t15 36t-15 36t-36 15zM444 751q-7 0 -12 5t-5 12t5 12t12 5
t12 -5t5 -12t-5 -12t-12 -5zM539 276q-1 0 -2.5 -0.5t-3.5 -0.5q0 -1 -0.5 -1h-0.5v0.5v0.5q0 7 -5 12t-12 5h-3q-7 0 -12 -5t-5 -12v-1v0v0v0q-7 3 -13.5 0.5t-9.5 -9.5q-2 -6 0.5 -12.5t9.5 -9.5q15 -7 31 -7t32 7q7 2 10 8.5t0 13.5q-2 5 -6 8t-10 3v0zM488 386
q3 7 0.5 13.5t-9.5 8.5q-9 4 -18 6t-18 2q-8 0 -16.5 -2t-16.5 -6q-7 -4 -9 -10.5t1 -12.5q4 -7 10.5 -9t12.5 1q9 5 19 5t22 -5q7 -3 13.5 -0.5t8.5 9.5zM401 276q-2 0 -3.5 -0.5t-2.5 -0.5q0 -1 -0.5 -1h-0.5v0.5v0.5q0 7 -5 12t-12 5h-3q-7 0 -12 -5t-5 -12v-1v0v0h-1
q-6 3 -12.5 0.5t-9.5 -9.5q-3 -6 -0.5 -12.5t9.5 -9.5q15 -7 31 -7t33 7q6 2 9 8.5t1 13.5q-2 5 -6.5 8t-9.5 3v0z" />
</svg>
