<?xml version="1.0" standalone="no"?>
<!DOCTYPE svg PUBLIC "-//W3C//DTD SVG 1.1//EN" "http://www.w3.org/Graphics/SVG/1.1/DTD/svg11.dtd" >
<svg xmlns="http://www.w3.org/2000/svg" xmlns:xlink="http://www.w3.org/1999/xlink" version="1.1" viewBox="-10 0 1034 1024">
   <path fill="currentColor"
d="M491 597h42v395h-42v-395v0zM491 32h42v395h-42v-395v0zM597 491h395v42h-395v-42v0zM32 491h395v42h-395v-42v0zM512 619q-45 0 -76 -31t-31 -76t31 -76t76 -31t76 31t31 76t-31 76t-76 31zM512 448q-27 0 -45.5 18.5t-18.5 45.5t18.5 45.5t45.5 18.5t45.5 -18.5
t18.5 -45.5t-18.5 -45.5t-45.5 -18.5zM512 928q-86 0 -162 -32.5t-132.5 -89t-89 -132.5t-32.5 -162t32.5 -162t89 -132.5t132.5 -89t162 -32.5t162 32.5t132.5 89t89 132.5t32.5 162t-32.5 162t-89 132.5t-132.5 89t-162 32.5zM512 139q-77 0 -145 29.5t-118.5 80
t-80 118.5t-29.5 145t29.5 145t80 118.5t118.5 80t145 29.5t145 -29.5t118.5 -80t80 -118.5t29.5 -145t-29.5 -145t-80 -118.5t-118.5 -80t-145 -29.5v0zM512 800q-59 0 -111.5 -23t-91.5 -62t-62 -91.5t-23 -111.5t23 -111.5t62 -91.5t91.5 -62t111.5 -23t111.5 23t91.5 62
t62 91.5t23 111.5t-23 111.5t-62 91.5t-91.5 62t-111.5 23zM512 267q-50 0 -95 19.5t-78 52.5t-52.5 78t-19.5 95t19.5 95t52.5 78t78 52.5t95 19.5t95 -19.5t78 -52.5t52.5 -78t19.5 -95t-19.5 -95t-52.5 -78t-78 -52.5t-95 -19.5v0z" />
</svg>
