<?xml version="1.0" standalone="no"?>
<!DOCTYPE svg PUBLIC "-//W3C//DTD SVG 1.1//EN" "http://www.w3.org/Graphics/SVG/1.1/DTD/svg11.dtd" >
<svg xmlns="http://www.w3.org/2000/svg" xmlns:xlink="http://www.w3.org/1999/xlink" version="1.1" viewBox="-10 0 1034 1024">
   <path fill="currentColor"
d="M890 438l-1 -1t-2 -1l-212 -98q-1 -1 -2 -1.5t-3 -0.5l-159 -24h-2h-1l-159 25h-1.5t-0.5 1v0l-212 98q-1 0 -2 1l-1 1l-115 133q-2 3 -2.5 6t1.5 6v0l1 1v0l58 74v0v0v0q1 0 2.5 1.5l1.5 1.5l426 361q1 1 2.5 1.5t3.5 0.5t3.5 -0.5t2.5 -1.5l427 -362l1 -1l1 -1v0v0h1
l58 -74q0 -1 0.5 -1h0.5q2 -3 1.5 -6t-2.5 -6l-115 -133v0zM877 452l90 105l-132 -47l-88 -109l-18 -18l148 69v0zM800 498l-111 -40l45 -41l66 81v0zM355 355l154 -23l156 22l57 49l-55 48l-154 24l-156 -23l-56 -48l54 -49v0zM491 729l-204 -43l130 -62l74 105v0zM369 473
l127 19l-74 101l-53 -120v0zM496 750l-74 91l-131 -135l205 44v0zM432 612l79 -108l79 108l-79 112l-79 -112v0zM531 729l74 -105l130 62l-204 43v0zM731 706l-131 135l-74 -91l205 -44v0zM600 593l-74 -100l127 -20l-53 120v0zM334 458l-112 40l65 -80l47 40v0zM145 452
l151 -70l-8.5 8l-8.5 8v0l-92 112l-132 47l90 -105v0zM40 582l123 -43l-80 97l-43 -54v0zM189 537l56 140l-145 -31l89 -109v0zM118 669l133 28l3 87l-136 -115v0zM205 524l143 -51l59 135l-142 67l-60 -151v0zM274 801l-4 -88l145 148l62 112zM511 995l-76 -138l76 -95
l76 95l-76 138v0zM748 801l-203 172l62 -112l145 -148l-4 88v0zM614 608l60 -135l143 51l-60 151l-143 -67v0zM768 784l3 -87l133 -28zM777 677l55 -140l90 109zM939 636l-80 -97l123 43l-43 54v0zM513 229q4 0 7 -3t3 -7v-209q0 -4 -3 -7t-7 -3t-6.5 3t-2.5 7v209
q0 4 2.5 7t6.5 3zM806 321q1 0 2.5 -0.5t2.5 -1.5l195 -148q3 -3 3.5 -6.5t-1.5 -7.5q-3 -3 -7 -3.5t-7 2.5l-194 148q-3 2 -3.5 6t1.5 7q1 2 3 3t5 1v0zM20 171l195 148q1 1 2.5 1.5t3.5 0.5t4 -1t3 -3q3 -3 2.5 -7t-4.5 -6l-194 -148q-3 -3 -7 -2.5t-6 3.5q-3 4 -2.5 7.5
t3.5 6.5v0z" />
</svg>
