<?xml version="1.0" standalone="no"?>
<!DOCTYPE svg PUBLIC "-//W3C//DTD SVG 1.1//EN" "http://www.w3.org/Graphics/SVG/1.1/DTD/svg11.dtd" >
<svg xmlns="http://www.w3.org/2000/svg" xmlns:xlink="http://www.w3.org/1999/xlink" version="1.1" viewBox="-10 0 1044 1024">
   <path fill="currentColor"
d="M555 1024h-86q-26 0 -45 -19t-19 -45v-79q-20 -6 -39.5 -14.5t-38.5 -18.5l-56 56q-19 18 -46 18t-45 -18l-60 -60q-9 -9 -14 -21t-5 -24q0 -13 5 -25t14 -21l56 -56q-10 -19 -18.5 -38.5t-14.5 -39.5h-79q-26 0 -45 -19t-19 -45v-86q0 -13 5 -24.5t14 -20.5t20.5 -14
t24.5 -5h79q6 -20 14.5 -39.5t18.5 -38.5l-56 -56q-19 -19 -19 -45.5t19 -45.5l60 -60q18 -18 45.5 -18t45.5 18l56 56q19 -10 38.5 -18.5t39.5 -14.5v-79q0 -26 19 -45t45 -19h86q26 0 45 19t19 45v79q20 6 39.5 14.5t38.5 18.5l56 -56q18 -18 45.5 -18t45.5 18l60 60
q9 9 14 21t5 24q0 13 -5 25t-14 21l-56 56q10 18 18.5 38t14.5 40h79q26 0 45 19t19 45v86q0 12 -5 24t-14 21t-20.5 14t-24.5 5h-79q-6 20 -14.5 39.5t-18.5 38.5l56 56q19 19 19 45.5t-19 45.5l-60 60q-18 18 -45.5 18t-45.5 -18l-56 -56q-19 10 -38.5 18.5t-39.5 14.5v79
q0 26 -19 45t-45 19v0zM323 800q3 0 6 1t5 2q23 14 47.5 24t50.5 16q7 2 11.5 8t4.5 13v96q0 9 6.5 15t14.5 6h86q8 0 14.5 -6t6.5 -15v-96q0 -7 4.5 -13t11.5 -8q26 -6 50.5 -16t47.5 -24q6 -4 13.5 -3t12.5 6l68 68q6 6 15 6t15 -6l60 -60q6 -7 6 -15.5t-6 -14.5l-68 -68
q-5 -6 -6 -13t3 -14q14 -22 24 -46.5t16 -50.5q2 -7 8 -11.5t13 -4.5h96q4 0 8 -1.5t7 -4.5t4.5 -7t1.5 -8v-86q0 -9 -6 -15t-15 -6h-96q-7 0 -13 -4.5t-8 -11.5q-6 -26 -16 -50.5t-24 -47.5q-4 -6 -3 -13.5t6 -12.5l68 -68q3 -3 4.5 -6.5t1.5 -8.5q0 -4 -1.5 -8t-4.5 -7
l-60 -60q-6 -6 -15 -6t-15 6l-68 68q-6 5 -13 6t-14 -3q-22 -14 -46.5 -24t-50.5 -16q-7 -2 -11.5 -8t-4.5 -13v-96q0 -9 -6.5 -15t-14.5 -6h-86q-8 0 -14.5 6t-6.5 15v96q0 7 -4.5 13t-11.5 8q-26 6 -50.5 16t-47.5 24q-6 4 -13 3t-13 -6l-68 -68q-6 -6 -15 -6t-15 6
l-60 60q-6 7 -6 15.5t6 14.5l68 68q5 5 6 12.5t-3 13.5q-14 23 -24 47.5t-16 50.5q-2 7 -8 11.5t-13 4.5h-96q-4 0 -8 1.5t-7 4.5t-4.5 7t-1.5 8v86q0 8 6 14.5t15 6.5h96q7 0 13 4.5t8 11.5q6 26 16 50.5t24 46.5q4 7 3 14t-6 13l-68 68q-3 3 -4.5 6.5t-1.5 8.5q0 4 1.5 8
t4.5 7l60 60q6 6 15 6t15 -6l68 -68q3 -3 7 -4.5t8 -1.5v0zM512 725q-44 0 -83 -16.5t-68 -45.5t-45.5 -68t-16.5 -83t16.5 -83t45.5 -68t68 -45.5t83 -16.5t83 16.5t68 45.5t45.5 68t16.5 83t-16.5 83t-45.5 68t-68 45.5t-83 16.5zM512 341q-71 0 -121 50t-50 121t50 121
t121 50t121 -50t50 -121t-50 -121t-121 -50v0z" />
</svg>
