<?xml version="1.0" standalone="no"?>
<!DOCTYPE svg PUBLIC "-//W3C//DTD SVG 1.1//EN" "http://www.w3.org/Graphics/SVG/1.1/DTD/svg11.dtd" >
<svg xmlns="http://www.w3.org/2000/svg" xmlns:xlink="http://www.w3.org/1999/xlink" version="1.1" viewBox="-10 0 1051 1024">
   <path fill="currentColor"
d="M939 375v0v0h-341q-35 0 -60 -25t-25 -60v-41l-77 -47q-4 -2 -6.5 -6t-2.5 -8q0 -5 2.5 -9t6.5 -6l77 -46v-42q0 -35 25 -60t60 -25h341q35 0 60.5 25t25.5 60v205q0 35 -25 60t-61 25v0zM990 85q0 -21 -15 -36t-36 -15h-341q-21 0 -36 15t-15 36v52q0 4 -2.5 8t-6.5 6
l-61 37l61 36q4 3 6.5 6.5t2.5 8.5v51q0 21 15 36t36 15h341q21 0 36 -15t15 -36v-205v0zM883 200q-1 1 -2.5 2t-3.5 1q-1 1 -2.5 1.5t-3.5 0.5q-4 0 -7 -1.5t-5 -3.5q-1 -1 -2 -2.5t-2 -3.5q-1 -1 -1 -3v-3v-3.5t1 -3.5q1 -1 2 -2.5t2 -2.5q5 -5 12 -5t12 5q1 1 2 2.5
t2 2.5q0 2 0.5 3.5t0.5 3.5q0 1 -0.5 3t-0.5 3q-1 2 -2 3.5t-2 2.5v0zM781 200q-2 1 -3 2t-3 1q-2 1 -3.5 1.5t-2.5 0.5q-2 0 -3.5 -0.5t-3.5 -1.5q-1 0 -2.5 -1t-3.5 -2q-2 -3 -3.5 -6t-1.5 -6q0 -2 0.5 -3.5t1.5 -3.5q0 -1 1 -2.5t2 -2.5q5 -5 12.5 -5t12.5 5q1 1 2 2.5
t1 2.5q1 2 1.5 3.5t0.5 3.5q0 1 -0.5 3t-1.5 3q0 2 -1 3.5t-2 2.5v0zM678 200q-2 2 -5.5 3.5t-6.5 1.5t-6.5 -1.5t-5.5 -3.5q-2 -3 -3.5 -6t-1.5 -6q0 -2 0.5 -3.5t0.5 -3.5q1 -1 2 -2.5t2 -2.5q5 -5 12 -5t12 5q1 1 2 2.5t2 2.5q1 2 1 3.5v3.5v3t-1 3q-1 2 -2 3.5t-2 2.5v0
zM473 379q6 90 -3 145.5t-34 82.5q-11 12 -25.5 18t-30.5 6q-1 72 -4 130.5t-6.5 100.5t-6.5 67t-4 30q-1 27 -21 46t-47 19h-103q-27 0 -47 -19t-21 -46q-1 -5 -4 -29.5t-6.5 -66.5t-6.5 -100.5t-4 -131.5q-15 0 -28.5 -6t-24.5 -18q-32 -34 -38 -101.5t-1 -126.5
q2 -33 31.5 -77t128.5 -58q-18 -17 -28 -40.5t-10 -49.5q0 -50 32.5 -85t78.5 -35q45 0 77.5 35t32.5 85q0 26 -10 49.5t-28 40.5q94 13 126 54t35 81v0zM316 154q0 -36 -22.5 -61t-53.5 -25q-32 0 -54.5 25t-22.5 61q0 24 12 45t32 32q4 2 6.5 6t2.5 9v12q0 6 -4.5 11
t-11.5 6q-52 3 -103.5 25t-55.5 81q-6 75 2 128.5t28 74.5q6 6 13 9.5t15 3.5q0 -44 1.5 -92.5t3.5 -100.5q1 -8 6 -12.5t12 -4.5q7 1 12 6t5 12q-7 125 -5.5 226t6 172.5t9.5 111l5 39.5v1.5v1.5q1 14 10.5 23.5t23.5 9.5h34v-376q0 -7 5 -12t13 -5q7 0 12 5t5 12v376h34
q14 0 23.5 -9.5t10.5 -23.5v-1.5v-0.5q0 -1 5 -41.5t9.5 -113t6 -173t-4.5 -222.5q-1 -7 4 -12t12 -6q7 0 12 4.5t6 12.5q3 52 4 100.5t1 92.5q9 0 17 -3.5t14 -9.5q29 -31 29 -102t-2 -101q-3 -48 -43 -74.5t-116 -31.5q-6 -1 -11 -6t-5 -11v-12q0 -5 2.5 -9t6.5 -6
q20 -11 32 -32t12 -45v0z" />
</svg>
