<?xml version="1.0" standalone="no"?>
<!DOCTYPE svg PUBLIC "-//W3C//DTD SVG 1.1//EN" "http://www.w3.org/Graphics/SVG/1.1/DTD/svg11.dtd" >
<svg xmlns="http://www.w3.org/2000/svg" xmlns:xlink="http://www.w3.org/1999/xlink" version="1.1" viewBox="-10 0 1044 1024">
   <path fill="currentColor"
d="M495 649h-478q-8 0 -12.5 -5t-4.5 -13v-614q0 -8 4.5 -12.5t12.5 -4.5h478q8 0 12.5 4.5t4.5 12.5v614q0 8 -4.5 13t-12.5 5zM34 614h444v-580h-444v580v0zM631 751h-273q-7 0 -12 -4.5t-5 -12.5v-103q0 -7 5 -12t12 -5h273q8 0 13 5t5 12v103q0 8 -5 12.5t-13 4.5z
M375 717h239v-68h-239v68zM495 1024h-478q-8 0 -12.5 -4.5t-4.5 -12.5t4.5 -12.5t12.5 -4.5h461v-256q0 -8 4.5 -12.5t12.5 -4.5t12.5 4.5t4.5 12.5v273q0 8 -4.5 12.5t-12.5 4.5zM1007 1024h-512q-8 0 -12.5 -4.5t-4.5 -12.5t4.5 -12.5t12.5 -4.5h512q8 0 12.5 4.5
t4.5 12.5t-4.5 12.5t-12.5 4.5zM887 290h-256q-7 0 -12 -4.5t-5 -12.5t5 -12.5t12 -4.5h256q8 0 13 4.5t5 12.5t-5 12.5t-13 4.5zM785 222h-68q-8 0 -12.5 -5t-4.5 -12q0 -8 4.5 -12.5t12.5 -4.5h68q8 0 12.5 4.5t4.5 12.5q0 7 -4.5 12t-12.5 5zM887 358h-136
q-8 0 -12.5 -4.5t-4.5 -12.5q0 -7 4.5 -12t12.5 -5h136q8 0 13 5t5 12q0 8 -5 12.5t-13 4.5zM375 273h-256q-7 0 -12 -4.5t-5 -12.5t5 -12.5t12 -4.5h256q8 0 13 4.5t5 12.5t-5 12.5t-13 4.5zM375 341h-256q-7 0 -12 -4.5t-5 -12.5q0 -7 5 -12t12 -5h256q8 0 13 5t5 12
q0 8 -5 12.5t-13 4.5zM273 205h-68q-8 0 -12.5 -5t-4.5 -12q0 -8 4.5 -12.5t12.5 -4.5h68q8 0 12.5 4.5t4.5 12.5q0 7 -4.5 12t-12.5 5zM375 410h-136q-8 0 -12.5 -5t-4.5 -12q0 -8 4.5 -13t12.5 -5h136q8 0 13 5t5 13q0 7 -5 12t-13 5zM956 853q-4 0 -7 -1t-5 -4l-342 -341
q-5 -5 -5 -12t5 -12q6 -5 12.5 -5t11.5 5l342 341q5 5 5 12t-5 12q-3 3 -5.5 4t-6.5 1v0zM836 649h-341q-8 0 -12.5 -5t-4.5 -13v-614q0 -8 4.5 -12.5t12.5 -4.5h512q8 0 12.5 4.5t4.5 12.5v444q0 2 -1 4.5t-2 5.5q-35 53 -79.5 96.5t-96.5 79.5q-1 0 -3.5 1t-5.5 1v0z
M512 614h319q48 -32 87.5 -71.5t71.5 -86.5v-422h-478v580v0zM836 649q-2 0 -4.5 -1.5t-3.5 -2.5q-4 -2 -6 -7t-1 -10l5 -32q5 -34 4 -66.5t-9 -65.5q-1 -4 0 -8.5t3 -6.5q3 -3 7.5 -5t8.5 0q41 7 82.5 7t81.5 -7q5 -2 9.5 0.5t7.5 6.5q2 3 2 8.5t-2 9.5q-35 53 -79.5 96.5
t-96.5 79.5q-1 1 -3.5 2.5t-5.5 1.5zM858 481q6 28 6 56.5t-4 56.5q31 -24 58.5 -51.5t50.5 -57.5q-28 2 -56 1t-55 -5v0zM222 1024q-4 0 -7 -1.5t-5 -3.5q-5 -5 -5 -12t5 -12l273 -273q5 -5 12 -5t12 5t5 12t-5 12l-273 273q-3 2 -5.5 3.5t-6.5 1.5v0zM768 1024
q-4 0 -6.5 -1.5t-5.5 -3.5l-273 -273q-5 -5 -5 -12t5 -12t12 -5t12 5l273 273q5 5 5 12t-5 12q-3 2 -5.5 3.5t-6.5 1.5v0z" />
</svg>
