<?xml version="1.0" standalone="no"?>
<!DOCTYPE svg PUBLIC "-//W3C//DTD SVG 1.1//EN" "http://www.w3.org/Graphics/SVG/1.1/DTD/svg11.dtd" >
<svg xmlns="http://www.w3.org/2000/svg" xmlns:xlink="http://www.w3.org/1999/xlink" version="1.1" viewBox="-10 0 1044 1024">
   <path fill="currentColor"
d="M922 785h-52q-7 0 -12 -4.5t-5 -12.5t5 -12.5t12 -4.5h52q7 0 12 4.5t5 12.5t-5 12.5t-12 4.5zM922 717h-86q-7 0 -12 -5t-5 -12q0 -8 5 -12.5t12 -4.5h86q7 0 12 4.5t5 12.5q0 7 -5 12t-12 5zM717 802h-34q-8 0 -12.5 -4.5t-4.5 -12.5t4.5 -12.5t12.5 -4.5h34
q7 0 12 4.5t5 12.5t-5 12.5t-12 4.5zM717 751h-68q-8 0 -13 -4.5t-5 -12.5t5 -12.5t13 -4.5h68q7 0 12 4.5t5 12.5t-5 12.5t-12 4.5zM393 802h-35q-7 0 -12 -4.5t-5 -12.5t5 -12.5t12 -4.5h35q7 0 12 4.5t5 12.5t-5 12.5t-12 4.5zM393 751h-69q-7 0 -12 -4.5t-5 -12.5
t5 -12.5t12 -4.5h69q7 0 12 4.5t5 12.5t-5 12.5t-12 4.5zM404 852v0q-2 1 -5.5 1h-5.5h17h-3t-3 -1zM404 852v0q-2 1 -5.5 1h-5.5h17h-3t-3 -1zM404 852v0q-2 1 -5.5 1h-5.5h17h-3t-3 -1zM404 852v0q-2 1 -5.5 1h-5.5h17h-3t-3 -1zM404 852v0q-2 1 -5.5 1h-5.5h17h-3t-3 -1z
M404 852v0q-2 1 -5.5 1h-5.5h17h-3t-3 -1zM404 852v0q-2 1 -5.5 1h-5.5h17h-3t-3 -1zM404 852v0q-2 1 -5.5 1h-5.5h17h-3t-3 -1zM404 852v0q-2 1 -5.5 1h-5.5h17h-3t-3 -1zM404 852v0q-2 1 -5.5 1h-5.5h17h-3t-3 -1zM1007 819h-17q8 -10 12.5 -23.5t4.5 -27.5v-666
q0 -35 -25 -60t-60 -25h-137q0 -6 -5.5 -11.5t-11.5 -5.5h-171q-6 0 -11.5 5.5t-5.5 11.5h-136q-36 0 -61 25t-25 60v171h-34q0 -6 -5 -11.5t-12 -5.5h-102q-7 0 -12 5.5t-5 11.5h-69q-35 0 -60 25t-25 60v410q0 14 5 27.5t12 23.5h-34q-6 0 -11.5 5.5t-5.5 11.5v103
q0 6 5.5 11.5t11.5 5.5h17v51q0 6 5.5 11.5t11.5 5.5h137q6 0 11.5 -5.5t5.5 -11.5v-51h222v51q0 6 5 11.5t12 5.5h136q7 0 12 -5.5t5 -11.5v-51h222v51q0 6 5.5 11.5t11.5 5.5h137q6 0 11.5 -5.5t5.5 -11.5v-51h17q6 0 11.5 -5.5t5.5 -11.5v-103q0 -6 -5.5 -11.5
t-11.5 -5.5v0zM614 34h137v135l-58 -46q-1 0 -1.5 -1t-2.5 -1q-1 -1 -2 -1.5l-1 -0.5h-2.5h-2.5t-2 0.5t-1 1.5q-2 0 -2.5 1t-1.5 1l-60 46v-135v0zM393 102q0 -21 14.5 -36t36.5 -15h136v154q0 5 2.5 9t8.5 6q3 3 8.5 2t8.5 -4l75 -59l75 59q1 2 2.5 2.5t2.5 1.5h1h1
q2 0 4.5 -0.5t5.5 -1.5q5 -2 7.5 -6t2.5 -9v-154h137q21 0 36 15t15 36v666q0 22 -15 36.5t-36 14.5h-137q8 -10 12.5 -23.5t4.5 -27.5v-239q0 -36 -24.5 -60.5t-60.5 -24.5h-51q0 -7 -5.5 -12t-11.5 -5h-103q-6 0 -11.5 5t-5.5 12h-51v-86v-4v-4q0 -1 -0.5 -3.5t-1.5 -3.5
v-2.5t-2 -2.5q-1 -3 -1.5 -5.5t-1.5 -4.5q0 -2 -1 -3t-1 -2q0 -2 -1 -3t-2 -3q-1 -1 -1.5 -2l-1.5 -3q-6 -6 -11.5 -12t-12.5 -12l-3 -1.5l-3 -1.5q-1 -1 -2 -1.5l-3 -1.5q-1 -2 -2 -2h-3q-2 -1 -4.5 -1.5t-5.5 -2.5h-2.5t-2.5 -1q-1 0 -3.5 -1t-3.5 -1h-4h-4v-171v0z
M538 596q3 2 8 2t9 -2l42 -28l43 28q4 2 8.5 2t8.5 -2q4 -3 6.5 -7t2.5 -9v-102h51q22 0 36.5 14.5t14.5 36.5v239q0 22 -14.5 36.5t-36.5 14.5h-256v0v0q7 -10 12 -23.5t5 -27.5v-290h51v102q0 5 2.5 9t6.5 7v0zM563 548v-87h68v87l-25 -17q-4 -3 -9.5 -3t-9.5 3l-24 17v0z
M222 290h68v87l-25 -17q-4 -2 -9.5 -2t-9.5 2l-26 17v-87h2zM68 358q0 -21 15 -36t36 -15h69v103q0 5 2 8.5t6 6.5t8.5 3t8.5 -3l43 -27l43 27q4 3 8.5 3t8.5 -3t6 -6.5t2 -8.5v-103h69h3h3h3h2h1h1h1h1l2 1t3 1h1.5t1.5 2q2 0 3 1t3 2t3.5 2.5t2.5 4.5q2 2 4 3.5t3 3.5
q1 1 1.5 2.5t2.5 2.5q0 1 0.5 1.5t0.5 1.5t1 2.5t1 2.5v1v1v1v1v2v3v3v4v409v3v2v3v3v0v1v3t-2 1v0.5v0.5v1v1v0v0v1.5t-1 0.5l-0.5 0.5t-1.5 0.5l-0.5 1t-1.5 1q-1 1 -1.5 2.5t-1.5 2.5q-1 2 -2.5 4t-2.5 3q-2 1 -3 2.5t-2 2.5h-0.5h-1.5l-1 0.5t-1 1.5l-5 2.5t-7 2.5h-1.5
h-1.5h-1h-1l-1 0.5t-1 1.5h-280q-21 0 -36 -15t-15 -36v-407v0zM171 990h-103v-34h103v34zM563 990h-102v-34h102v34zM956 990h-103v-34h103v34zM990 922h-956v-69h359h5.5t5.5 -1v0q2 0 3 0.5t3 0.5h580v69v0zM461 819v0v0v0v0v0zM406 817h-1h1h1h1h-1.5h-0.5zM393 819h8h1
t1 -2q-3 2 -5.5 2h-4.5zM422 811v0v0q2 -2 3.5 -3t2.5 -2q-2 1 -3.5 2t-2.5 3zM406 817h-1h1h1h1q2 -1 5.5 -2t6.5 -3h1t1 -1q-4 2 -8 3.5t-8 2.5v0zM461 819v0v0v0v0v0zM393 819h8h1t1 -2q-3 2 -5.5 2h-4.5zM404 852v0q-2 1 -5.5 1h-5.5h17h-3t-3 -1zM440 788v-0.5t0 0.5
v-1v0v0v1z" />
</svg>
