<?xml version="1.0" standalone="no"?>
<!DOCTYPE svg PUBLIC "-//W3C//DTD SVG 1.1//EN" "http://www.w3.org/Graphics/SVG/1.1/DTD/svg11.dtd" >
<svg xmlns="http://www.w3.org/2000/svg" xmlns:xlink="http://www.w3.org/1999/xlink" version="1.1" viewBox="-10 0 1044 1024">
   <path fill="currentColor"
d="M917 939h-810q-44 0 -75.5 -31.5t-31.5 -75.5v-597q0 -44 31.5 -75.5t75.5 -31.5h810q44 0 75.5 31.5t31.5 75.5v597q0 44 -31.5 75.5t-75.5 31.5zM107 171q-27 0 -45.5 18.5t-18.5 45.5v597q0 26 18.5 45t45.5 19h810q27 0 45.5 -19t18.5 -45v-597q0 -27 -18.5 -45.5
t-45.5 -18.5h-810v0zM1003 384h-982q-9 0 -15 -6.5t-6 -14.5q0 -9 6 -15.5t15 -6.5h982q9 0 15 6.5t6 15.5q0 8 -6 14.5t-15 6.5zM213 256q0 18 -12.5 30.5t-29.5 12.5q-18 0 -30.5 -12.5t-12.5 -30.5t12.5 -30.5t30.5 -12.5q17 0 29.5 12.5t12.5 30.5zM341 256
q0 18 -12.5 30.5t-29.5 12.5q-18 0 -30.5 -12.5t-12.5 -30.5t12.5 -30.5t30.5 -12.5q17 0 29.5 12.5t12.5 30.5v0zM469 256q0 18 -12.5 30.5t-29.5 12.5q-18 0 -30.5 -12.5t-12.5 -30.5t12.5 -30.5t30.5 -12.5q17 0 29.5 12.5t12.5 30.5v0z" />
</svg>
