<?xml version="1.0" standalone="no"?>
<!DOCTYPE svg PUBLIC "-//W3C//DTD SVG 1.1//EN" "http://www.w3.org/Graphics/SVG/1.1/DTD/svg11.dtd" >
<svg xmlns="http://www.w3.org/2000/svg" xmlns:xlink="http://www.w3.org/1999/xlink" version="1.1" viewBox="-10 0 1034 1024">
   <path fill="currentColor"
d="M512 538l-11 -7q-66 -39 -119.5 -93t-90.5 -118.5t-57.5 -137.5t-20.5 -150h43q0 70 18 136t51 125t80.5 108t106.5 85q59 -36 106.5 -85t80.5 -108t51 -125t18 -136h43q0 77 -20.5 150t-57.5 137.5t-90.5 118.5t-119.5 93zM811 992h-43q0 -70 -18 -136t-51 -125
t-80.5 -108t-106.5 -85q-59 36 -106.5 85t-80.5 108t-51 125t-18 136h-43q0 -77 20.5 -150t57.5 -137.5t90.5 -118.5t119.5 -93l11 -7l11 7q66 39 119.5 93t90.5 118.5t57.5 137.5t20.5 150v0zM128 11h768v42h-768v-42zM128 971h768v42h-768v-42zM606 996q-8 -46 -34 -76
t-60 -30q-32 0 -59 30t-35 76l-43 -6q12 -63 49.5 -102t85.5 -39q49 0 87 39t47 102l-38 6v0zM512 371q-58 0 -98.5 -53t-40.5 -128q0 -10 1.5 -20.5t3.5 -20.5l42 7q-1 8 -1.5 17t-0.5 17q0 57 28 98t68 41t68 -41t28 -98v-16.5t-2 -17.5l43 -7q1 10 2.5 20.5t1.5 20.5
q-3 75 -44 128t-99 53v0z" />
</svg>
