<?xml version="1.0" standalone="no"?>
<!DOCTYPE svg PUBLIC "-//W3C//DTD SVG 1.1//EN" "http://www.w3.org/Graphics/SVG/1.1/DTD/svg11.dtd" >
<svg xmlns="http://www.w3.org/2000/svg" xmlns:xlink="http://www.w3.org/1999/xlink" version="1.1" viewBox="-10 0 703 1024">
   <path fill="currentColor"
d="M597 68h-512q-6 0 -11.5 5.5t-5.5 11.5v512q0 7 5.5 12t11.5 5h512q7 0 12 -5t5 -12v-512q0 -6 -5 -11.5t-12 -5.5zM580 580h-478v-478h478v478zM273 717h-188q-7 0 -12 -5t-5 -12q0 -8 5 -12.5t12 -4.5h188q8 0 12.5 4.5t4.5 12.5q0 7 -4.5 12t-12.5 5zM461 717h-120
q-7 0 -12 -5t-5 -12q0 -8 5 -12.5t12 -4.5h120q7 0 12 4.5t5 12.5q0 7 -5 12t-12 5zM597 717h-68q-8 0 -12.5 -5t-4.5 -12q0 -8 4.5 -12.5t12.5 -4.5h68q8 0 12.5 4.5t4.5 12.5q0 7 -4.5 12t-12.5 5v0zM273 853h-188q-7 0 -12 -4.5t-5 -12.5q0 -7 5 -12t12 -5h188
q8 0 12.5 5t4.5 12q0 8 -4.5 12.5t-12.5 4.5zM461 853h-120q-7 0 -12 -4.5t-5 -12.5q0 -7 5 -12t12 -5h120q7 0 12 5t5 12q0 8 -5 12.5t-12 4.5zM597 853h-68q-8 0 -12.5 -4.5t-4.5 -12.5q0 -7 4.5 -12t12.5 -5h68q8 0 12.5 5t4.5 12q0 8 -4.5 12.5t-12.5 4.5v0zM597 785
h-153q-8 0 -12.5 -4.5t-4.5 -12.5t4.5 -12.5t12.5 -4.5h153q8 0 12.5 4.5t4.5 12.5t-4.5 12.5t-12.5 4.5zM375 785h-170q-8 0 -12.5 -4.5t-4.5 -12.5t4.5 -12.5t12.5 -4.5h170q8 0 13 4.5t5 12.5t-5 12.5t-13 4.5zM137 785h-52q-7 0 -12 -4.5t-5 -12.5t5 -12.5t12 -4.5h52
q7 0 12 4.5t5 12.5t-5 12.5t-12 4.5v0zM631 0h-580q-22 0 -36.5 14.5t-14.5 36.5v956q0 6 5.5 11.5t11.5 5.5h17q4 0 7 -1.5t5 -3.5l39 -39l40 39q5 5 11.5 5t11.5 -5l40 -39l39 39q5 5 12 5t12 -5l39 -39l39 39q6 5 12.5 5t11.5 -5l40 -39l39 39q5 5 12 5t12 -5l39 -39
l39 39q5 5 12 5t12 -5l39 -39l40 39q2 2 5 3.5t7 1.5h17q6 0 11.5 -5.5t5.5 -11.5v-956q0 -22 -15 -36.5t-37 -14.5v0zM649 983l-40 -39q-2 -3 -5 -4t-7 -1t-6.5 1t-5.5 4l-39 39l-39 -39q-5 -5 -12 -5t-12 5l-39 39l-40 -39q-5 -5 -11.5 -5t-11.5 5l-40 39l-39 -39
q-5 -5 -12 -5t-12 5l-39 39l-39 -39q-5 -5 -12 -5t-12 5l-39 39l-40 -39q-5 -5 -11.5 -5t-12.5 5l-39 39v-932q0 -6 5.5 -11.5t11.5 -5.5h580q7 0 12.5 5.5t5.5 11.5v932v0zM358 326v-137q17 2 30 8t22 15v44q0 6 5 11.5t12 5.5q6 0 11.5 -5.5t5.5 -11.5v-102q0 -7 -5.5 -12
t-11.5 -5q-7 0 -12 5t-5 12v15q-12 -6 -25 -10t-27 -5v-17q0 -7 -5 -12.5t-12 -5.5q-6 0 -11.5 5.5t-5.5 12.5v18q-38 5 -70 32t-32 69t32 69t70 32v136q-16 -2 -29 -7.5t-22 -14.5v-44q0 -7 -5.5 -12t-11.5 -5t-11.5 5t-5.5 12v102q0 6 5.5 11.5t11.5 5.5t11.5 -5.5
t5.5 -11.5v-15q12 6 24.5 10t26.5 5v17q0 7 5.5 12t11.5 5q7 0 12 -5t5 -12v-19q39 -5 71 -31.5t32 -68.5q0 -43 -32 -69.5t-71 -31.5v0zM324 323q-27 -4 -47.5 -22t-20.5 -45t20.5 -44t47.5 -23v134zM358 493v-133q27 5 48 22.5t21 44.5t-21 44.5t-48 21.5z" />
</svg>
