<?xml version="1.0" standalone="no"?>
<!DOCTYPE svg PUBLIC "-//W3C//DTD SVG 1.1//EN" "http://www.w3.org/Graphics/SVG/1.1/DTD/svg11.dtd" >
<svg xmlns="http://www.w3.org/2000/svg" xmlns:xlink="http://www.w3.org/1999/xlink" version="1.1" viewBox="-10 0 1034 1024">
   <path fill="currentColor"
d="M656 96q-7 0 -14 0.5t-13 1.5q-54 7 -104 31.5t-89 66.5q-32 34 -52 75t-27 85q-4 0 -8 -1t-8 -1q-46 -6 -92 4.5t-87 37.5q-40 27 -67 64.5t-40 81t-11 90t21 90.5l-33 155v1v2q0 7 4.5 11.5t11.5 4.5h2t3 -1l137 -39q42 21 88.5 26.5t90.5 -4.5t83 -34.5t69 -62.5
q13 -18 23.5 -37.5t17.5 -39.5q59 21 122.5 17.5t122.5 -33.5l165 47q1 1 2 1h2q7 0 11.5 -4.5t4.5 -11.5v-2v-1l-39 -185q22 -52 24.5 -106.5t-12.5 -105.5t-47 -95.5t-80 -76.5q-41 -27 -88 -40t-94 -12v0zM657 128q42 -1 84 10.5t80 36.5q43 29 72 69.5t42.5 87t10.5 96
t-24 96.5q-1 2 -1.5 3.5t-0.5 3.5q0 1 0.5 2t0.5 2v0.5v0.5l34 161l-142 -41h-1.5h-0.5q-1 -1 -2.5 -1h-2.5h-0.5h-0.5v0q-2 0 -3.5 0.5t-3.5 1.5q-54 29 -113.5 32.5t-114.5 -16.5q11 -49 2.5 -99t-35.5 -94h311v0v0q7 0 11.5 -4.5t4.5 -11.5t-4.5 -11.5t-11.5 -4.5v0v0
h-334q-2 -3 -4.5 -6t-4.5 -5q-25 -27 -55 -45t-62 -28q6 -40 24 -77.5t47 -69.5q40 -42 91.5 -64.5t106.5 -24.5v0zM495 256q-7 0 -11.5 5t-4.5 11q0 7 5 11.5t11 4.5h1v0h352v0v0q6 0 11 -4.5t5 -11.5t-5 -11.5t-11 -4.5v0v0h-352v0h-1v0v0v0zM495 352q-7 0 -11.5 5
t-4.5 11q0 7 5 11.5t11 4.5h1v0h352v0v0q6 0 11 -4.5t5 -11.5t-5 -11.5t-11 -4.5v0v0h-352v0h-1v0v0v0zM317 384q45 1 88 20t76 54q29 32 45 70.5t18 79t-10 80t-39 73.5q-26 34 -61.5 56t-75 30.5t-80.5 3t-79 -25.5q-3 -2 -6 -2.5t-7 1.5h-0.5h-0.5l-116 33l28 -132v0v0v0
v0v-5.5t-1 -5.5q-18 -39 -20.5 -80.5t9 -80.5t35.5 -72.5t60 -57.5q31 -21 66.5 -30.5t70.5 -8.5v0zM175 512q-7 0 -11.5 5t-4.5 11q0 7 5 11.5t11 4.5h1v0h288v0v0q7 0 11.5 -4.5t4.5 -11.5t-4.5 -11.5t-11.5 -4.5v0v0h-288v0h-1v0v0v0zM616 544q-7 0 -11.5 5t-4.5 11
q0 7 5 11.5t11 4.5h1v0h77v0v0q7 0 11.5 -4.5t4.5 -11.5t-4.5 -11.5t-11.5 -4.5v0v0h-77v0h-1v0v0v0zM175 608q-7 0 -11.5 5t-4.5 11q0 7 5 11.5t11 4.5h1v0h288v0v0q7 0 11.5 -4.5t4.5 -11.5t-4.5 -11.5t-11.5 -4.5v0v0h-288v0h-1v0v0v0zM174 704q-6 0 -10.5 5t-4.5 11
q0 7 5 11.5t11 4.5h0.5h0.5h128v0v0q7 0 11.5 -4.5t4.5 -11.5t-4.5 -11.5t-11.5 -4.5v0v0h-128h-0.5h-0.5v0h-1v0z" />
</svg>
