<?xml version="1.0" standalone="no"?>
<!DOCTYPE svg PUBLIC "-//W3C//DTD SVG 1.1//EN" "http://www.w3.org/Graphics/SVG/1.1/DTD/svg11.dtd" >
<svg xmlns="http://www.w3.org/2000/svg" xmlns:xlink="http://www.w3.org/1999/xlink" version="1.1" viewBox="-10 0 1129 1024">
   <path fill="currentColor"
d="M1024 796v152q0 42 -18 59t-39 17h-76q-20 0 -38 -17t-18 -59v-152q-21 -2 -48.5 -20t-27.5 -60v-90q0 -28 19 -58t80 -41q-7 -11 -10.5 -25.5t-3.5 -32.5q0 -37 24.5 -63.5t59.5 -26.5h3q34 0 59 26.5t25 63.5q0 18 -3.5 32.5t-10.5 25.5q61 11 80 41t19 58v90
q0 42 -27.5 60t-48.5 20v0zM1062 626q0 -12 -12 -36t-85 -29q-7 -1 -12 -6.5t-5 -12.5v-9q0 -5 2.5 -9.5t7.5 -6.5q3 -2 11 -11t8 -37q0 -21 -13.5 -36.5t-32.5 -15.5h-3q-19 0 -32.5 15.5t-13.5 36.5q0 28 7.5 37t11.5 11q5 2 7.5 6.5t2.5 9.5v9q0 7 -5 12.5t-13 6.5
q-72 5 -84 29t-12 36v90q0 23 14.5 31.5t23.5 10.5v-95q0 -8 5.5 -13.5t13.5 -5.5q7 0 13 5.5t6 13.5v285q0 9 3 23.5t15 14.5h19v-209q0 -7 6 -12.5t13 -5.5q8 0 13.5 5.5t5.5 12.5v209h19q13 0 16 -14.5t3 -23.5v-285q0 -8 5.5 -13.5t13.5 -5.5t13.5 5.5t5.5 13.5v95
q9 -2 23.5 -10.5t14.5 -31.5v-90v0zM854 341h-19v57q0 6 -3.5 11t-8.5 7q-2 0 -4 0.5t-3 0.5q-4 0 -7.5 -1.5t-6.5 -3.5l-70 -71h-106q-23 0 -40 -16.5t-17 -40.5v-151q0 -24 17 -40.5t40 -16.5h228q23 0 39.5 16.5t16.5 40.5v151q0 24 -16.5 40.5t-39.5 16.5v0zM873 133
q0 -8 -6 -13.5t-13 -5.5h-228q-8 0 -13.5 5.5t-5.5 13.5v151q0 8 5.5 13.5t13.5 5.5h114q4 0 7.5 1.5t5.5 4.5l44 43v-30q0 -7 5.5 -13t13.5 -6h38q7 0 13 -5.5t6 -13.5v-151zM816 228q-4 0 -7.5 -1.5t-6.5 -4.5t-4 -6.5t-1 -6.5q0 -4 1.5 -7.5t3.5 -6.5q5 -5 13.5 -5
t13.5 5q3 3 4.5 6.5t1.5 7.5q0 3 -1.5 6.5t-4.5 6.5t-6.5 4.5t-6.5 1.5v0zM740 228q-2 0 -4 -0.5t-3 -1.5q-2 0 -3.5 -1.5t-3.5 -2.5q-2 -3 -3.5 -6.5t-1.5 -6.5q0 -4 1.5 -7.5t3.5 -6.5q4 -4 10 -5t11 1q1 0 2 0.5t1 1.5q1 0 2 1l1 1q3 3 4.5 6.5t1.5 7.5q0 3 -1.5 6.5
t-4.5 6.5q-2 3 -5.5 4.5t-7.5 1.5v0zM664 228q-4 0 -7.5 -1.5t-6.5 -4.5q-2 -3 -3.5 -6.5t-1.5 -6.5q0 -4 1.5 -7.5t3.5 -6.5q4 -3 8.5 -4.5t9.5 -0.5q1 0 1.5 0.5t1.5 0.5t2 0.5t2 1.5l1 1l1 1q3 3 4.5 6.5t1.5 7.5q0 3 -1.5 6.5t-4.5 6.5q-2 3 -5.5 4.5t-7.5 1.5v0z
M636 469q0 18 -3.5 32.5t-10.5 25.5q60 11 79.5 41t19.5 58v90q0 42 -28 60t-48 20v152q0 42 -18 59t-39 17h-76q-20 0 -38.5 -17t-18.5 -59v-152q-20 -2 -47.5 -20t-27.5 -60v-90q0 -28 19 -58t80 -41q-7 -11 -10.5 -25.5t-3.5 -32.5q0 -37 24.5 -63.5t59.5 -26.5h2
q35 0 60 26.5t25 63.5v0zM551 417h-2q-19 0 -32.5 15.5t-13.5 36.5q0 28 7.5 37t11.5 11t7 6.5t3 9.5v9q0 7 -5 12.5t-13 6.5q-72 5 -84.5 29t-12.5 36v90q0 23 15 31.5t23 10.5v-95q0 -8 5.5 -13.5t13.5 -5.5t13.5 5.5t5.5 13.5v285q0 9 3 23.5t16 14.5h19v-209
q0 -7 5.5 -12.5t13.5 -5.5t13.5 5.5t5.5 12.5v209h19q13 0 16 -14.5t3 -23.5v-285q0 -8 5.5 -13.5t13.5 -5.5t13.5 5.5t5.5 13.5v95q9 -2 23.5 -10.5t14.5 -31.5v-90q0 -12 -12 -36t-85 -29q-7 -1 -12 -6.5t-5 -12.5v-9q0 -5 2.5 -9.5t7.5 -6.5q3 -2 11 -11t8 -37
q0 -21 -13.5 -36.5t-33.5 -15.5v0zM398 265h-105l-71 71q-2 2 -5.5 3.5t-7.5 1.5h-4t-3 -1q-6 -2 -9 -7t-3 -11v-57h-19q-24 0 -40.5 -16.5t-16.5 -39.5v-152q0 -24 16.5 -40.5t40.5 -16.5h227q24 0 40.5 16.5t16.5 40.5v152q0 23 -16.5 39.5t-40.5 16.5v0zM417 57
q0 -8 -5.5 -13.5t-13.5 -5.5h-227q-8 0 -13.5 5.5t-5.5 13.5v152q0 7 5.5 13t13.5 6h38q8 0 13.5 5.5t5.5 13.5v30l43 -44q3 -3 6.5 -4t7.5 -1h113q8 0 13.5 -6t5.5 -13v-152zM374 146q-3 3 -6.5 4.5t-6.5 1.5q-4 0 -7.5 -1.5t-6.5 -4.5q-1 -1 -2 -2.5t-2 -3.5t-1 -3.5v-3.5
v-4t1 -3q1 -2 2 -3.5t2 -3.5q5 -5 13.5 -5t13.5 5q1 2 2 3.5t2 3.5q1 1 1.5 3t0.5 4t-0.5 3.5t-1.5 3.5t-2 3.5t-2 2.5v0zM285 152q-2 0 -4 -0.5t-3 -1.5q-2 -1 -3.5 -2t-3.5 -2q-2 -3 -3.5 -6t-1.5 -7q0 -2 0.5 -4t0.5 -3q1 -2 2 -3.5t2 -3.5q6 -5 14 -5t13 5q1 2 2 3.5
t2 3.5q1 1 1.5 3t0.5 4q0 4 -1.5 7t-4.5 6t-6 4.5t-7 1.5v0zM222 146q-2 3 -5.5 4.5t-7.5 1.5t-7.5 -1.5t-6.5 -4.5q-1 -1 -2 -2.5t-2 -3.5q0 -2 -0.5 -3.5t-0.5 -3.5t0.5 -4t0.5 -3q1 -2 2 -3.5t2 -3.5q6 -5 14 -5t13 5q2 2 3 3.5t1 3.5q1 1 1.5 3t0.5 4t-0.5 3.5t-1.5 3.5
q0 2 -1 3.5t-3 2.5v0zM172 379q35 0 59.5 26.5t24.5 63.5q0 18 -3.5 32.5t-10.5 25.5q61 11 80.5 41t19.5 58v90q0 42 -28 60t-48 20v152q0 42 -18.5 59t-38.5 17h-76q-21 0 -39 -17t-18 -59v-152q-20 -2 -48 -20t-28 -60v-90q0 -28 19.5 -58t79.5 -41q-7 -11 -10.5 -25.5
t-3.5 -32.5q0 -37 25 -63.5t60 -26.5h2v0zM123 469q0 28 8 37t12 11t7 6.5t3 9.5v9q0 7 -5.5 12.5t-12.5 6.5q-73 5 -85 29t-12 36v90q0 23 15 31.5t23 10.5v-95q0 -8 5.5 -13.5t13.5 -5.5t13.5 5.5t5.5 13.5v285q0 9 3 23.5t16 14.5h19v-209q0 -7 5.5 -12.5t13.5 -5.5
t13.5 5.5t5.5 12.5v209h19q13 0 16 -14.5t3 -23.5v-285q0 -8 5.5 -13.5t13.5 -5.5t13.5 5.5t5.5 13.5v95q8 -2 23 -10.5t15 -31.5v-90q0 -12 -12.5 -36t-84.5 -29q-8 -1 -13 -6.5t-5 -12.5v-9q0 -5 3 -9.5t7 -6.5t11.5 -11t7.5 -37q0 -21 -13.5 -36.5t-32.5 -15.5h-2
q-19 0 -33 15.5t-14 36.5v0z" />
</svg>
