<?xml version="1.0" standalone="no"?>
<!DOCTYPE svg PUBLIC "-//W3C//DTD SVG 1.1//EN" "http://www.w3.org/Graphics/SVG/1.1/DTD/svg11.dtd" >
<svg xmlns="http://www.w3.org/2000/svg" xmlns:xlink="http://www.w3.org/1999/xlink" version="1.1" viewBox="-10 0 1034 1024">
   <path fill="currentColor"
d="M659 1013h-294v-559q0 -67 43 -114.5t104 -47.5q62 0 104.5 45.5t42.5 93.5v582v0zM407 971h207v-540q0 -32 -30.5 -64t-73.5 -32t-74 35t-31 84v517h2zM491 734h42v258h-42v-258v0zM887 681h43v172h-43v-172v0zM94 681h43v172h-43v-172v0zM512 241q-46 0 -79.5 -33.5
t-33.5 -81.5t33.5 -81.5t79.5 -33.5t79.5 33.5t33.5 81.5t-33.5 81.5t-79.5 33.5zM512 53q-29 0 -49.5 21t-20.5 52q0 30 20.5 51t49.5 21t49.5 -21t20.5 -51q0 -31 -20.5 -52t-49.5 -21zM1013 875h-209v-382q0 -48 31 -81.5t74 -33.5q45 0 74.5 32.5t29.5 67.5v397v0z
M847 832h124v-356q0 -19 -18.5 -38.5t-43.5 -19.5q-26 0 -44 21t-18 52v341v0zM909 343q-35 0 -59 -25t-24 -60t24.5 -60t58.5 -25q35 0 59 25t24 60t-24 60t-59 25zM909 215q-18 0 -29.5 13t-11.5 30q0 18 12.5 30.5t28.5 12.5q17 0 28.5 -12.5t11.5 -30.5q0 -17 -11.5 -30
t-28.5 -13zM220 875h-209v-382q0 -48 30.5 -81.5t73.5 -33.5q45 0 75 32.5t30 67.5v397v0zM53 832h124v-356q0 -19 -18 -38.5t-44 -19.5q-25 0 -43.5 21t-18.5 52v341v0zM115 343q-35 0 -59 -25t-24 -60t25 -60t58 -25q35 0 59 25t24 60t-24 60t-59 25zM115 215
q-17 0 -28.5 13t-11.5 30q0 18 12 30.5t28 12.5q18 0 29.5 -12.5t11.5 -30.5q0 -17 -11.5 -30t-29.5 -13zM380 1013q-59 -8 -110.5 -23t-94 -36t-75 -46.5t-51.5 -54.5l36 -25q17 25 46.5 47.5t68.5 41t86 32.5t100 22l-6 42v0zM649 1013l-7 -42q52 -8 98 -21t84 -31
t66.5 -39.5t46.5 -45.5l34 26q-20 27 -52.5 51t-74 44t-91 35t-104.5 23v0zM815 610q-40 -17 -87 -30t-97 -19l7 -43q54 8 104.5 21.5t91.5 32.5l-19 38v0zM198 614l-19 -38q47 -22 101.5 -37t114.5 -23l4 43q-56 6 -107.5 20.5t-93.5 34.5v0z" />
</svg>
