<?xml version="1.0" standalone="no"?>
<!DOCTYPE svg PUBLIC "-//W3C//DTD SVG 1.1//EN" "http://www.w3.org/Graphics/SVG/1.1/DTD/svg11.dtd" >
<svg xmlns="http://www.w3.org/2000/svg" xmlns:xlink="http://www.w3.org/1999/xlink" version="1.1" viewBox="-10 0 1044 1024">
   <path fill="currentColor"
d="M939 853h-854q-35 0 -60 -25t-25 -60v-640q0 -35 25 -60t60 -25h854q35 0 60 25t25 60v640q0 35 -25 60t-60 25zM85 85q-17 0 -29.5 12.5t-12.5 30.5v640q0 18 12.5 30.5t29.5 12.5h854q17 0 29.5 -12.5t12.5 -30.5v-640q0 -18 -12.5 -30.5t-29.5 -12.5h-854v0zM811 981
h-598q-8 0 -14.5 -6t-6.5 -15t6.5 -15t14.5 -6h598q8 0 14.5 6t6.5 15t-6.5 15t-14.5 6zM662 981h-0.5h-0.5h-298q-5 0 -10 -2t-8 -7q-3 -4 -3.5 -9t0.5 -10l43 -128q2 -6 7.5 -10t12.5 -4h214q7 0 12.5 4t7.5 10l41 124q2 3 2.5 5.5t0.5 5.5q0 9 -6 15t-15 6v0zM392 939
h240l-29 -86h-182l-29 86v0zM939 683h-854v-555h854v555zM128 640h768v-469h-768v469zM555 747q0 17 -12.5 29.5t-30.5 12.5t-30.5 -12.5t-12.5 -29.5q0 -18 12.5 -30.5t30.5 -12.5t30.5 12.5t12.5 30.5z" />
</svg>
