<?xml version="1.0" standalone="no"?>
<!DOCTYPE svg PUBLIC "-//W3C//DTD SVG 1.1//EN" "http://www.w3.org/Graphics/SVG/1.1/DTD/svg11.dtd" >
<svg xmlns="http://www.w3.org/2000/svg" xmlns:xlink="http://www.w3.org/1999/xlink" version="1.1" viewBox="-10 0 1034 1024">
   <path fill="currentColor"
d="M975 32h-0.5h-1.5q-66 1 -127 14t-117 36h-0.5h-0.5q0 1 -0.5 1h-1.5q-1 1 -2 1.5t-2 0.5q-4 3 -9 5.5l-11 5.5h-0.5h-0.5l-0.5 0.5t-1.5 0.5q-2 2 -4 2.5t-4 2.5q-39 20 -75 44.5t-69 52.5t-62.5 58.5t-56.5 62.5q-10 -4 -20.5 -7t-21.5 -4v0q-40 -5 -83 8.5t-84 42.5
q-55 38 -103.5 100t-82.5 142q0 1 -0.5 2.5t-0.5 3.5q0 7 4.5 11.5t11.5 4.5q3 0 5.5 -1t4.5 -2q49 -39 87.5 -60t65.5 -25q14 -3 24.5 -2t18.5 5t14.5 10t12.5 15q-2 4 -3.5 7.5t-3.5 6.5q0 2 -0.5 3.5t-0.5 3.5q0 3 1.5 6t3.5 5l34 34q-22 34 -45.5 72.5t-48.5 81.5v0v0
v0.5v0.5v0v0h-0.5h-0.5v1v1v0v0v0.5t-1 0.5v1v1v0v1v0v0v0.5v0.5v0v0v0v0v0.5v1.5v0v1v0v0v1l1 1v0.5v0.5v0.5t1 0.5v1v1v0v0v0v0v0h1v0.5v0.5v0v0q1 0 1 0.5v0.5q1 0 1 0.5v0.5v0v0q1 0 1 0.5v0.5v0h1v0.5v0.5h0.5h0.5q0 1 0.5 1h0.5h1v0l0.5 0.5l0.5 0.5v0v0v0v0h0.5h0.5
h1h1v0v0v0v0h1v0h0.5h0.5v0v0v0v0v0v0h1.5h1.5h1h1l0.5 -0.5l0.5 -0.5q1 0 1.5 -0.5l0.5 -0.5h0.5h0.5q43 -25 81 -48.5t72 -45.5l33 33q2 2 5 3.5t6 1.5q2 0 3.5 -0.5t3.5 -0.5q3 -2 6.5 -3.5t7.5 -3.5q19 13 26 29t3 41q-5 28 -25.5 66.5t-59.5 87.5q-1 2 -2 4.5t-1 5.5
q0 7 4.5 11.5t11.5 4.5q2 0 3.5 -0.5t2.5 -0.5q80 -34 142 -82.5t100 -103.5q37 -52 48.5 -107t-9.5 -103q33 -26 63 -55t58 -61.5t52.5 -67.5t44.5 -74q2 -3 3.5 -5t2.5 -5q4 -7 7.5 -13t6.5 -12q0 -1 0.5 -1.5t0.5 -1.5v0v0l0.5 -0.5t0.5 -1.5t0.5 -1.5t0.5 -1.5
q23 -56 35.5 -118t12.5 -128q0 -7 -4.5 -11.5t-11.5 -4.5v0v0v0v0v0v0v0v0v0h-1v0zM958 66q-1 52 -11 101t-26 94l-157 -157q45 -16 93.5 -26.5t100.5 -11.5zM730 118l177 178q-1 2 -2 4.5t-2 4.5v0v0q-1 0 -1 1t-1 1l-4 8l-4 8q-3 4 -5 8l-4 8l-0.5 0.5l-0.5 0.5
q-38 67 -89 124t-108.5 104t-120 83.5t-123.5 62.5l-21 -20q20 -15 38.5 -29t33.5 -28q45 -40 69 -84t18 -93q0 -1 -0.5 -2l-0.5 -1v-1q-1 -3 -3 -5t-4 -3l-1 -1q-2 -1 -3.5 -1.5t-3.5 -0.5v-1q-49 -6 -93 18t-84 69q-14 15 -28 33.5t-28 38.5l-23 -22q26 -61 63 -123
t84 -119t103.5 -107.5t123.5 -88.5l1 -0.5l1 -0.5q9 -4 22 -11.5t24 -12.5v0zM689 256q-15 0 -29.5 5.5t-26.5 17.5q-23 23 -23 56t23 56t56 23t56 -23t23 -56t-23 -56q-11 -12 -26 -17.5t-30 -5.5v0zM689 288q9 0 18 3.5t15 9.5q14 14 14 33.5t-14 33.5q-13 14 -32.5 14
t-33.5 -14t-14 -33.5t14 -32.5q7 -7 15.5 -10.5t17.5 -3.5v0zM354 340q13 1 25.5 4t24.5 6q-4 6 -8 11.5t-8 10.5q0 1 -0.5 1.5l-0.5 0.5q-9 14 -18.5 27.5t-17.5 28.5q-8 12 -15 24t-13 24q-1 2 -2.5 4.5t-2.5 4.5q-6 12 -12.5 24t-11.5 25q-6 -7 -12 -14.5t-14 -11.5
q-14 -6 -29.5 -7.5t-33.5 1.5q-23 4 -50.5 18t-57.5 34q30 -54 65.5 -98.5t74.5 -71.5q25 -18 50 -29t49 -15q4 -1 8.5 -1.5t9.5 -0.5v0zM545 479q0 35 -17.5 67.5t-55.5 66.5q-34 31 -84 63.5t-109 68.5q36 -59 68.5 -109t63.5 -84q34 -38 66.5 -55.5t67.5 -17.5zM674 620
q11 37 3 79.5t-39 87.5q-27 39 -71.5 74.5t-98.5 65.5q20 -30 33.5 -58t17.5 -51q5 -27 -4.5 -49t-27.5 -40q13 -5 25.5 -11.5t24.5 -13.5q1 0 1.5 -0.5t1.5 -0.5l22 -12t22 -13q24 -13 46.5 -28t43.5 -30v0zM250 698l-124 125l15 15l66 -66q11 -20 22 -38.5t21 -35.5z
M325 775q-18 10 -36.5 21t-37.5 22l-80 80l15 16l139 -139v0zM203 806l-93 92l16 16l92 -93h-0.5h-0.5v-1h-1h-0.5t-0.5 -1v1q0 -1 -0.5 -1t-1.5 -1l-0.5 -0.5t-1.5 -0.5v0v0q0 -1 -0.5 -1h-0.5v0v0v0v0v0v0v0v0v0v0q0 -1 -0.5 -1h-0.5v0v0q0 -1 -0.5 -1h-0.5q0 -1 -0.5 -1
t-0.5 -1v0v0q-1 -1 -1 -1.5t-1 -0.5q0 -1 -0.5 -2t-1.5 -1v-1v0v0zM110 838l-15 15l15 15l15 -15zM95 914l-15 15l15 15l15 -15zM156 914l-15 15l15 15l15 -15z" />
</svg>
