<?xml version="1.0" standalone="no"?>
<!DOCTYPE svg PUBLIC "-//W3C//DTD SVG 1.1//EN" "http://www.w3.org/Graphics/SVG/1.1/DTD/svg11.dtd" >
<svg xmlns="http://www.w3.org/2000/svg" xmlns:xlink="http://www.w3.org/1999/xlink" version="1.1" viewBox="-10 0 993 1024">
   <path fill="currentColor"
d="M375 85h-85q-8 0 -12.5 -4.5t-4.5 -12.5q0 -7 4.5 -12t12.5 -5h85q8 0 13 5t5 12q0 8 -5 12.5t-13 4.5zM239 85h-17q-8 0 -12.5 -4.5t-4.5 -12.5q0 -7 4.5 -12t12.5 -5h17q8 0 12.5 5t4.5 12q0 8 -4.5 12.5t-12.5 4.5zM887 700h-221q-8 0 -12.5 -5t-4.5 -12v-120
q0 -7 4.5 -12t12.5 -5h221q8 0 13 5t5 12v120q0 7 -5 12t-13 5zM683 666h187v-86h-187v86v0zM410 529h-86q-7 0 -12 -4.5t-5 -12.5t5 -12.5t12 -4.5h86q7 0 12 4.5t5 12.5t-5 12.5t-12 4.5zM579 529h-111q-8 0 -12.5 -4.5t-4.5 -12.5t4.5 -12.5t12.5 -4.5h111q7 0 12 4.5
t5 12.5t-5 12.5t-12 4.5zM493 597h-169q-7 0 -12 -4.5t-5 -12.5q0 -7 5 -12t12 -5h169q8 0 12.5 5t4.5 12q0 8 -5 12.5t-12 4.5zM579 597h-33q-8 0 -12.5 -4.5t-4.5 -12.5q0 -7 4.5 -12t12.5 -5h33q7 0 12 5t5 12q0 8 -5 12.5t-12 4.5zM905 222h-308v-154q0 -28 -20 -48
t-48 -20h-444q-28 0 -48 20t-20 48v86q-6 0 -11.5 5t-5.5 12v17q0 6 5.5 11.5t11.5 5.5v17q-6 0 -11.5 5.5t-5.5 11.5v17q0 6 5.5 11.5t11.5 5.5v17q-6 0 -11.5 5.5t-5.5 11.5v17q0 7 5.5 12t11.5 5v615q0 28 20 48t48 20h444q28 0 48 -20t20 -48v-188h308q28 0 48 -20
t20 -48v-410q0 -28 -20 -48t-48 -20v0zM51 68q0 -14 10 -24t24 -10h444q14 0 24 10t10 24v34h-512v-34v0zM263 990h-178q-14 0 -24 -10t-10 -24v-69h212q-10 9 -17 22.5t-7 29.5q0 15 6 28.5t18 22.5v0zM307 973q-14 0 -24 -10t-10 -24t10 -24t24 -10t24 10t10 24t-10 24
t-24 10zM563 956q0 14 -10 24t-24 10h-177q10 -9 16.5 -22.5t6.5 -28.5q0 -16 -6 -29.5t-17 -22.5h211v69v0zM563 853h-512v-716h512v85h-256q-28 0 -48 20t-20 48v410q0 28 20 48t48 20h256v85zM939 700q0 14 -10 24t-24 10h-598q-14 0 -24 -10t-10 -24v-256h666v256v0z
M939 410h-666v-69h666v69zM939 307h-666v-17q0 -14 10 -24t24 -10h598q14 0 24 10t10 24v17v0z" />
</svg>
