<?xml version="1.0" standalone="no"?>
<!DOCTYPE svg PUBLIC "-//W3C//DTD SVG 1.1//EN" "http://www.w3.org/Graphics/SVG/1.1/DTD/svg11.dtd" >
<svg xmlns="http://www.w3.org/2000/svg" xmlns:xlink="http://www.w3.org/1999/xlink" version="1.1" viewBox="-10 0 1034 1024">
   <path fill="currentColor"
d="M239 64h-1.5h-0.5q-32 2 -54.5 25t-22.5 55v560h-128v16v0v64q0 32 22.5 55t54.5 25h1.5h1.5h432v114l82 -48l78 49v-115h80q32 0 55 -22.5t25 -53.5v-2v-2v0v0v-560h128v-80q0 -32 -22.5 -55t-53.5 -25h-2h-2v0v0h-672v0v0v0v0h-0.5h-0.5v0v0v0zM240 96v0v0v0v0
q20 0 34 14t14 34v64v0v16h544v303v0v0v1v0v256q0 20 -14 34t-34 14h-80v-75q3 1 6.5 1h6.5h8.5h8.5q2 0 3.5 -0.5t3.5 -0.5q3 -1 5.5 -1.5t6.5 -4.5t4.5 -6.5t0.5 -4.5q1 -2 1 -4v-4v-8v-8v-8v-7v0v0v-0.5v-0.5q3 -1 6 -3t7 -4q3 -2 7 -4t7 -4q2 -1 3.5 -2t2.5 -3
q2 -1 4 -3t3 -7q2 -5 1 -8t-2 -5q0 -2 -1 -3.5t-2 -3.5q-2 -4 -4 -7.5t-4 -6.5t-4 -6.5t-4 -5.5v-1v0v0v-1q2 -2 4 -5.5t4 -6.5q2 -4 4 -7.5t4 -6.5q1 -2 1.5 -3.5t1.5 -3.5t1.5 -5t-0.5 -8q-2 -5 -4 -7t-3 -4q-2 -1 -3.5 -2t-3.5 -2q-3 -2 -6.5 -4t-7.5 -4t-7 -4t-6 -3v0v0
v-1v0v-6.5v-8.5v-8v-8q0 -2 -0.5 -3.5t-0.5 -4.5q0 -2 -1 -4.5t-5 -6.5t-6.5 -4.5t-4.5 -0.5q-2 -1 -4 -1h-4q-4 -1 -8 -0.5t-8 0.5h-8h-7v0v0h-0.5h-0.5q-1 -3 -3 -6t-4 -7t-4 -7.5t-4 -6.5q-1 -2 -2 -3.5t-2 -2.5l-4 -4t-7 -3q-5 -2 -8 -1t-5 2q-2 0 -3.5 1t-3.5 2
q-3 2 -6.5 4t-7.5 4q-3 2 -6.5 4t-5.5 4h-1v0v0v0l-6 -4t-7 -4q-3 -2 -7 -4t-7 -4q-2 -1 -3.5 -1.5t-3.5 -1.5t-5 -1.5t-8 0.5v0q-5 2 -7 4l-3 3q-2 2 -3 3.5t-2 3.5q-2 3 -4 6.5t-4 7.5l-3.5 7t-3.5 6v0v0h-0.5h-0.5h-6.5h-7.5h-8.5h-8.5q-2 0 -3.5 0.5t-3.5 0.5
q-3 0 -5.5 1t-6.5 5t-4.5 6.5t-0.5 4.5q-1 2 -1 4v4v8v8v8v7v0v0v0.5v0.5q-3 1 -6 3t-7 4q-3 2 -7 4t-7 4q-2 1 -3.5 2t-2.5 2l-4 4t-3 7q-2 5 -1 8t2 5q0 2 1 3.5t2 3.5q2 3 4 6.5t4 7.5q2 3 4 6.5t4 5.5v1v0v0v0l-4 6t-4 7q-2 3 -4 6.5t-4 7.5q-1 2 -1.5 3.5t-1.5 3.5
t-1.5 5t0.5 8q2 5 4 7l3 3q2 2 3.5 3t3.5 2q3 2 6.5 4t7.5 4l7 3.5t6 3.5v0v0v0.5v0.5v6.5v7.5v8.5v8.5q0 1 0.5 3t0.5 4q0 3 1 5.5t5 6.5v0q4 4 6.5 4.5t4.5 0.5q2 1 4 1h4h8h8q3 0 6 -0.5t6 -0.5v74h-368q7 -10 11.5 -22t4.5 -26v-640q0 -20 14 -34t34 -14v0zM304 96h608
q20 0 34 14t14 34v48h-109h-1.5h-1.5v0v0h-1.5h-1.5h-525v-48q0 -14 -4.5 -26t-11.5 -22v0zM256 288v32h512v-32h-512zM256 384v32h512v-32h-512zM256 480v32h192v-32h-192zM661 484q1 2 2 3.5t2 3.5q2 4 4 7.5t4 6.5q1 2 2 3.5t2 2.5q1 2 2 3.5t5 3.5v0q4 2 6 2.5t4 0.5
h3.5h3.5h8h8h9v4v5v8v8v3v4t0.5 4t2.5 6q2 3 3.5 4.5t3.5 2.5t3.5 2t2.5 2q3 2 7 4t7 3q2 2 4 3l4 2q-1 2 -2 3.5t-3 3.5q-2 4 -4 7.5t-4 6.5q-1 2 -1.5 3.5t-1.5 2.5q-1 2 -1.5 4t-0.5 6q0 5 0.5 7t1.5 3q1 2 2 3.5t2 3.5q1 3 3.5 6.5t4.5 6.5l2 4l2 4q-2 1 -3.5 2t-3.5 2
q-4 2 -7.5 4t-6.5 4q-2 1 -3.5 2t-2.5 2q-2 1 -3.5 2t-3.5 5t-2.5 6t-0.5 4v4v3v8v8v5v4h-4h-5h-8h-8h-3h-4t-4 0.5t-5 2.5h-1q-3 2 -4.5 3.5t-2.5 3.5q-1 1 -2 3t-2 3q-2 3 -4 7t-3 7q-2 2 -3 4l-2 4q-1 -1 -3 -2t-4 -3q-4 -2 -7.5 -4t-6.5 -4q-2 -1 -3.5 -1.5t-2.5 -1.5
q-2 -1 -4 -1.5t-6 -0.5q-5 0 -6.5 0.5t-3.5 1.5t-3.5 1.5t-3.5 1.5q-3 2 -6.5 4.5t-6.5 4.5l-4 2l-4 2q-1 -2 -2 -3.5t-2 -3.5q-2 -4 -4 -7.5t-4 -6.5q-1 -2 -2 -3.5t-2 -2.5q-1 -2 -2 -3.5t-5 -3.5q-4 -3 -6 -3h-4h-3.5h-3.5q-4 -1 -8 -0.5t-8 0.5h-9v-4v-5v-8v-8v-3.5
v-3.5t-0.5 -4t-2.5 -6t-4 -5t-3 -2q-2 -1 -3.5 -2t-2.5 -2q-3 -2 -7 -4t-7 -3q-2 -2 -4 -3l-4 -2q1 -2 2 -3.5l3 -4.5t4 -6.5t4 -6.5q1 -2 1.5 -3.5t1.5 -3.5q1 -1 1.5 -3t0.5 -6q0 -5 -0.5 -7t-1.5 -3q-1 -2 -2 -3.5t-1 -3.5q-2 -3 -4.5 -6.5t-4.5 -6.5l-2 -4l-2 -4
q2 -1 3.5 -2t3.5 -2q4 -2 7.5 -4t6.5 -4q2 -1 3.5 -2t2.5 -2q2 -1 3.5 -2.5t3.5 -4.5q2 -4 2.5 -6t0.5 -4v-4v-3v-8v-8v-5v-4h4h5h8h8h3h4t4 -0.5t6 -2.5q3 -2 4.5 -4t2.5 -3q1 -2 2 -3.5t2 -2.5q2 -4 4 -7.5t3 -6.5q2 -2 3 -4l2 -4v0q1 1 3 2t4 3q4 2 7.5 4t6.5 4
q2 1 3.5 1.5t2.5 1.5q2 1 4 1.5t6 0.5q5 0 6.5 -0.5t3.5 -1.5t3.5 -2t3.5 -1q3 -2 6.5 -4.5t6.5 -4.5l4 -2l4 -2v0zM624 550q-7 0 -10 2.5t-4 3.5q-2 2 -3 3.5t-2 3.5q-2 3 -3.5 6.5t-3.5 6.5q-1 3 -2.5 6.5t-2.5 5.5v0v0h-1v0q-2 1 -5.5 1.5t-7.5 0.5q-4 1 -7.5 1.5
t-6.5 1.5q-2 0 -4 0.5t-4 1.5t-5 3.5t-5 8.5t-0.5 9.5t2.5 5.5t2 3.5t2 3.5q3 2 5.5 5t5.5 5q2 3 4.5 5.5t4.5 3.5l0.5 0.5l0.5 0.5v0v0q-1 3 -1.5 6.5t-1.5 6.5q0 4 -1 7.5t-1 7.5v4v4q1 2 2 6t6 8q5 3 9 3t6 -1q2 0 4 -0.5t3 -1.5l7 -3.5t6 -3.5l7 -3.5l5 -2.5v0v-1
q1 0 1 0.5v0.5l5 2.5t6 3.5l7 3.5l7 3.5q1 0 3 1t4 1t6 0.5t9 -3.5t6 -7.5t2 -6.5v-4v-4q-1 -3 -1.5 -7t-1.5 -7q0 -4 -1 -7.5t-1 -6.5v0v0v0v0l4.5 -4.5l5.5 -5.5q2 -2 5 -4.5t5 -5.5q1 -2 2 -3.5t2 -3.5q2 -2 3 -5.5t-1 -9.5t-5 -8t-5 -3l-4 -2t-4 -1q-3 -1 -7 -1.5
t-7 -0.5q-4 -1 -7.5 -1.5t-5.5 -0.5h-1v0v0v0q-1 -3 -2.5 -6t-3.5 -6q-1 -4 -3 -7t-4 -7q-1 -1 -2 -2.5t-2 -3.5q-2 -2 -5 -4t-9 -2v0v0zM256 576v32h160v-32h-160zM624 597q1 1 1.5 2.5t1.5 2.5q0 2 1 3.5t2 2.5t2 3t4 4q3 3 5 3t3 1q2 0 3.5 0.5t3.5 0.5q1 0 3 0.5t3 0.5
l-2 2l-2 2q-2 1 -3 2.5t-2 2.5t-2 2.5t-2 5.5q-2 4 -1.5 6t0.5 3v3.5v3.5q1 1 1 3t1 3l-3 -1.5l-3 -1.5q-1 -1 -2.5 -1.5t-3.5 -1.5q-1 0 -3 -1t-6 -1t-5.5 1t-3.5 1q-1 1 -2.5 2t-3.5 1q-1 1 -2.5 2t-2.5 1q0 -1 0.5 -2.5t0.5 -3.5t0.5 -3.5t0.5 -2.5v-4t-1 -6t-2.5 -5.5
l-2.5 -2.5l-2 -2t-2 -3q-1 -1 -2.5 -2t-2.5 -2q2 0 3.5 -0.5t2.5 -0.5q2 0 3.5 -0.5t3.5 -0.5q1 0 3 -0.5t5 -3.5q3 -2 4 -3.5t2 -3.5q1 -1 2 -2.5t1 -3.5q1 -1 1.5 -2.5t1.5 -2.5v0zM64 736h96v48q0 20 -14 34t-34 14t-34 -14t-14 -34v-48zM256 736v32h192v-32h-192z
M640 788q3 2 6 3.5t6 3.5q2 1 3.5 1.5t3.5 1.5q2 0 5 1t8 0v0v0v122l-45 -28l-51 29v-124q1 0 1 0.5t1 0.5q5 1 8 0.5t5 -1.5t3.5 -1.5t3.5 -1.5t4.5 -2.5t5.5 -3.5v59h32v-60v0z" />
</svg>
