<?xml version="1.0" standalone="no"?>
<!DOCTYPE svg PUBLIC "-//W3C//DTD SVG 1.1//EN" "http://www.w3.org/Graphics/SVG/1.1/DTD/svg11.dtd" >
<svg xmlns="http://www.w3.org/2000/svg" xmlns:xlink="http://www.w3.org/1999/xlink" version="1.1" viewBox="-10 0 1044 1024">
   <path fill="currentColor"
d="M939 853h-854q-35 0 -60 -25t-25 -60v-512q0 -35 25 -60t60 -25h854q35 0 60 25t25 60v512q0 35 -25 60t-60 25zM85 213q-17 0 -29.5 12.5t-12.5 30.5v512q0 18 12.5 30.5t29.5 12.5h854q17 0 29.5 -12.5t12.5 -30.5v-512q0 -18 -12.5 -30.5t-29.5 -12.5h-854v0zM512 623
l-374 -242q-8 -5 -9.5 -13.5t2.5 -16.5q5 -7 13.5 -9t16.5 3l351 227l351 -227q8 -5 16.5 -3t13.5 9q4 8 2.5 16.5t-9.5 13.5l-374 242v0zM128 725q-5 0 -10 -2.5t-8 -6.5q-5 -8 -3 -16.5t9 -13.5l192 -128q8 -5 16.5 -3t13.5 9q5 8 3 16.5t-9 13.5l-192 128q-3 2 -6 2.5
t-6 0.5v0zM896 725q-3 0 -6 -0.5t-6 -2.5l-192 -128q-7 -5 -9 -13.5t3 -16.5q5 -7 13.5 -9t16.5 3l192 128q7 5 9 13.5t-3 16.5q-3 4 -8 6.5t-10 2.5v0z" />
</svg>
