<?xml version="1.0" standalone="no"?>
<!DOCTYPE svg PUBLIC "-//W3C//DTD SVG 1.1//EN" "http://www.w3.org/Graphics/SVG/1.1/DTD/svg11.dtd" >
<svg xmlns="http://www.w3.org/2000/svg" xmlns:xlink="http://www.w3.org/1999/xlink" version="1.1" viewBox="-10 0 1044 1024">
   <path fill="currentColor"
d="M192 469h64v43h-64v-43v0zM256 427h-195q-25 0 -43 -19t-18 -45v-299q0 -26 18 -45t43 -19h433q25 0 43 19t18 45v256h-43v-256q0 -9 -5.5 -15t-12.5 -6h-433q-8 0 -13 6t-5 15v299q0 8 5 14.5t13 6.5h195v43v0zM192 512h-85q-9 0 -15.5 -6.5t-6.5 -14.5q0 -9 6.5 -15.5
t15.5 -6.5h85q9 0 15 6.5t6 15.5q0 8 -6 14.5t-15 6.5zM0 299h555v42h-555v-42zM661 1024q-9 0 -15 -6.5t-6 -14.5v-86q0 -8 6 -14.5t15 -6.5t15.5 6.5t6.5 14.5v86q0 8 -6.5 14.5t-15.5 6.5zM846 1024h-377q-9 0 -15 -6.5t-6 -14.5q0 -9 6 -15.5t15 -6.5h377q9 0 15 6.5
t6 15.5q0 8 -6 14.5t-15 6.5zM934 939h-546q-37 0 -63 -29t-26 -69v-359q0 -40 26 -69t63 -29h546q37 0 63.5 29t26.5 69v359q0 40 -26.5 69t-63.5 29zM388 427q-19 0 -33 16t-14 39v359q0 22 14 38.5t33 16.5h546q20 0 33.5 -16.5t13.5 -38.5v-359q0 -23 -13.5 -39
t-33.5 -16h-546v0zM1003 811h-683q-9 0 -15 -6.5t-6 -15.5q0 -8 6 -14.5t15 -6.5h683q9 0 15 6.5t6 14.5q0 9 -6 15.5t-15 6.5zM661 832q-9 0 -15 6t-6 15t6 15.5t15 6.5t15.5 -6.5t6.5 -15.5t-6.5 -15t-15.5 -6v0z" />
</svg>
