<?xml version="1.0" standalone="no"?>
<!DOCTYPE svg PUBLIC "-//W3C//DTD SVG 1.1//EN" "http://www.w3.org/Graphics/SVG/1.1/DTD/svg11.dtd" >
<svg xmlns="http://www.w3.org/2000/svg" xmlns:xlink="http://www.w3.org/1999/xlink" version="1.1" viewBox="-10 0 1044 1024">
   <path fill="currentColor"
d="M580 666q-4 0 -6.5 -1.5t-5.5 -4.5l-68 -68q-5 -5 -5 -12t5 -12t12 -5t12 5l53 53l90 -136q4 -7 11 -8t13 3q7 3 8 10t-3 13l-102 154q-1 4 -5 6.5t-9 2.5q2 0 1 0h-1v0zM922 0h-666q-36 0 -60.5 24.5t-24.5 60.5v700h-120q-22 0 -36.5 15.5t-14.5 35.5v86q0 42 30 72
t72 30h649q20 0 39 -7.5t33 -23.5q14 -14 22 -32.5t8 -38.5v-683h120q22 0 36.5 -15.5t14.5 -35.5v-86q0 -42 -30 -72t-72 -30v0zM102 990q-28 0 -48 -20t-20 -48v-86q0 -7 5.5 -12t11.5 -5h598v99v2.5v2.5v1v1v2.5v2.5q1 17 8 32t17 28h-572v0zM845 36l-1.5 1.5t-2.5 1.5
l-1.5 3t-1.5 2q-1 2 -2 3.5t-1 3.5q-2 1 -3 3.5t-1 3.5q-1 1 -2 3.5t-1 5.5q-2 2 -2 4t-2 4q0 1 -0.5 2.5t-0.5 2.5t-1 2.5t-1 2.5q0 3 -1 5.5t-1 5.5v4.5v5.5v819q0 14 -5 26.5t-15 21.5q-9 7 -21.5 12t-26.5 5h-3.5h-3.5t-3 -0.5t-4 -1.5h-3t-4 -2q-1 0 -2 -0.5t-3 -0.5
q-1 0 -3 -1t-3 -3q-17 -7 -27.5 -23.5t-10.5 -35.5v-120q0 -6 -5.5 -11.5t-11.5 -5.5h-461v-700q0 -21 15.5 -36t35.5 -15l591 2v-1v1v0zM990 188q0 7 -5.5 12t-11.5 5h-120v-103q0 -28 20 -48t49 -20q28 0 48 20t20 48v86zM614 137h-204q-8 0 -12.5 -5t-4.5 -13
q0 -7 4.5 -12t12.5 -5h204q8 0 12.5 5t4.5 12q0 8 -4.5 13t-12.5 5zM734 239h-444q-8 0 -12.5 -4.5t-4.5 -12.5t4.5 -12.5t12.5 -4.5h444q8 0 12.5 4.5t4.5 12.5t-4.5 12.5t-12.5 4.5zM734 341h-444q-8 0 -12.5 -4.5t-4.5 -12.5q0 -7 4.5 -12t12.5 -5h444q8 0 12.5 5t4.5 12
q0 8 -4.5 12.5t-12.5 4.5zM597 375q-30 0 -57 9t-50 26h-200q-6 0 -11.5 5t-5.5 12q0 6 5.5 11.5t11.5 5.5h162q-13 15 -21.5 32t-14.5 36h-126q-6 0 -11.5 5.5t-5.5 11.5t5.5 11.5t11.5 5.5h120v8.5v8.5q0 13 1.5 26t4.5 25h-126q-6 0 -11.5 5.5t-5.5 11.5q0 7 5.5 12.5
t11.5 5.5h140q23 46 67.5 74t99.5 28q78 0 133 -55t55 -133t-55 -133t-133 -55v0zM597 717q-64 0 -108.5 -45t-44.5 -109q0 -7 1 -15l2 -16v0q10 -52 52.5 -87t97.5 -35q64 0 109 44.5t45 108.5t-45 109t-109 45zM683 918v4q0 19 10.5 35.5t26.5 23.5q-16 -9 -26.5 -25.5
t-10.5 -37.5v0z" />
</svg>
