<?xml version="1.0" standalone="no"?>
<!DOCTYPE svg PUBLIC "-//W3C//DTD SVG 1.1//EN" "http://www.w3.org/Graphics/SVG/1.1/DTD/svg11.dtd" >
<svg xmlns="http://www.w3.org/2000/svg" xmlns:xlink="http://www.w3.org/1999/xlink" version="1.1" viewBox="-10 0 1044 1024">
   <path fill="currentColor"
d="M205 777q-14 0 -24 -10.5t-10 -24.5t10 -24t24 -10t24 10t10 24t-10 24.5t-24 10.5v0zM819 777q-14 0 -24 -10.5t-10 -24.5t10 -24t24 -10t24 10t10 24t-10 24.5t-24 10.5v0zM1002 551l-67 -27l-42 -171q-4 -16 -18 -26.5t-32 -10.5h-109v-103q0 -14 -10 -24t-24 -10
h-666q-14 0 -24 10t-10 24v512q0 14 10 24t24 10h70q7 36 34.5 61t66.5 25q38 0 66 -25t34 -61h414q6 36 34 61t66 25q39 0 66.5 -25t34.5 -61h70q14 0 24 -10t10 -24v-141q0 -12 -6 -20.5t-16 -12.5v0zM34 213h666v137q0 64 -45 108.5t-109 44.5h-512v-290v0zM205 811
q-28 0 -48 -20t-20 -49q0 -28 20 -48t48 -20t48 20t20 48q0 29 -20 49t-48 20v0zM819 811q-28 0 -48 -20t-20 -49q0 -28 20 -48t48 -20t48 20t20 48q0 29 -20 49t-48 20v0zM990 725h-70v-0.5v-0.5v0v0v0v-2.5v-1.5t-1 -3t-1 -4v-1.5v-1.5t-1 -2.5t-1 -2.5t-0.5 -2.5
t-0.5 -2.5v-1v-1v0v0q0 -1 -1 -1.5t-1 -1.5q0 -2 -1 -2.5t-1 -1.5l-2 -4t-3 -4q-2 -4 -4.5 -7t-5.5 -5q-1 -2 -3.5 -4t-3.5 -3t-3 -2.5t-4 -2.5q-1 -2 -3 -3t-3 -2q-2 -2 -4 -3t-5 -2q-1 -2 -3.5 -2.5t-3.5 -1.5q-1 0 -1.5 -1t-1.5 -1q-2 0 -3 -0.5t-2 -0.5h-0.5h-1.5v0v0
h-1h-1h-1h-2h-1.5h-2.5v0v0q-2 0 -4 -0.5t-4 -1.5h-5.5h-4.5h-5.5h-5.5h-4t-4 2v0v0h-1.5h-2.5h-1.5h-1.5h-1h-1v0v0v0h-1q-2 0 -3 0.5t-3 0.5q-1 0 -2 0.5t-1 1.5q-1 0 -3 1t-4 3q-1 1 -3.5 2t-4.5 3q-3 1 -4.5 2t-2.5 3q-1 1 -3.5 2.5t-3.5 2.5q-3 1 -4 3t-3 4t-4.5 5.5
t-5.5 6.5q-1 1 -2.5 3.5t-2.5 4.5q0 1 -1 1.5t-1 2.5q0 1 -1 1.5t-1 1.5v0v0v1v1l-0.5 2t-0.5 3t-1 2.5t-1 2.5v1.5v1.5q0 2 -1 4t-1 3v1v3v0v0v0v0.5v0.5h-420v-0.5v-0.5v-2.5v-1.5t-0.5 -3t-0.5 -4v-1.5v-1.5t-1 -2.5t-1 -2.5t-1 -2.5t-1 -2.5v-1v-1q-1 -1 -1.5 -3.5
t-1.5 -3.5q-1 -2 -2.5 -4t-2.5 -4q-3 -4 -5.5 -7t-4.5 -5l-4 -4l-3 -3q-2 -1 -4 -2.5t-3 -2.5q-1 -2 -3.5 -3t-3.5 -2q-1 -2 -3.5 -3t-4.5 -2q-2 -2 -4 -2.5t-3 -1.5q-2 0 -2 -1t-2 -1q-1 0 -2.5 -0.5t-3.5 -0.5v0v0q-3 0 -4.5 -1t-4.5 -1h-4.5t-4.5 -2h-4.5h-5.5h-4.5h-5.5
t-4.5 0.5l-4.5 1.5q-2 0 -4 1t-4 1v0v0q-1 0 -2.5 0.5t-4.5 0.5q-1 0 -2 0.5t-1 1.5q-2 0 -4 1t-3 3q-1 1 -3.5 2t-5.5 3q-2 1 -3.5 2t-3.5 3q-1 1 -3 2.5t-3 2.5q-3 1 -4.5 3t-2.5 4q-3 2 -5.5 5.5t-4.5 6.5q-2 1 -3 3.5t-3 4.5q-1 1 -1.5 2.5l-1.5 4.5v1v1q0 1 -1 2.5
t-1 2.5t-0.5 2.5t-0.5 2.5v1.5v1.5q0 2 -1 4t-1 3v1v3v0.5v0.5h-77v-187h512q78 0 133 -55t55 -133h109q6 0 11 3.5t6 10.5l39 157h-75q-9 0 -15.5 -7t-6.5 -16v-80q0 -6 -5.5 -11.5t-11.5 -5.5t-11.5 5.5t-5.5 11.5v80q0 23 16.5 40t39.5 17h94l72 29v141v0zM768 623h-34
q-8 0 -12.5 -4.5t-4.5 -12.5t4.5 -12.5t12.5 -4.5h34q8 0 12.5 4.5t4.5 12.5t-4.5 12.5t-12.5 4.5zM205 265q0 6 -5.5 11.5t-11.5 5.5h-69v51h52q6 0 11.5 5t5.5 12q0 6 -5.5 11.5t-11.5 5.5h-52v85q0 7 -5 12t-12 5q-6 0 -11.5 -5t-5.5 -12v-187q0 -7 5.5 -12.5t11.5 -5.5
h86q6 0 11.5 5.5t5.5 12.5v0zM495 452q0 7 -5.5 12t-11.5 5h-85q-7 0 -12.5 -5t-5.5 -12v-187q0 -7 5.5 -12.5t12.5 -5.5h85q6 0 11.5 5.5t5.5 12.5q0 6 -5.5 11.5t-11.5 5.5h-68v51h34q6 0 11.5 5t5.5 12q0 6 -5.5 11.5t-11.5 5.5h-34v68h68q6 0 11.5 5.5t5.5 11.5v0z
M631 452q0 7 -5 12t-12 5h-85q-6 0 -11.5 -5t-5.5 -12v-187q0 -7 5.5 -12.5t11.5 -5.5h85q7 0 12 5.5t5 12.5q0 6 -5 11.5t-12 5.5h-68v51h34q7 0 12 5t5 12q0 6 -5 11.5t-12 5.5h-34v68h68q7 0 12 5.5t5 11.5v0zM273 350q-2 0 -5 1t-5 2q-4 3 -5.5 6.5t-1.5 7.5v-17h17v0z
M355 442l-51 -65q16 -8 26.5 -24.5t10.5 -36.5q0 -28 -20 -48.5t-48 -20.5h-34q-6 0 -11.5 5.5t-5.5 12.5v187q0 7 5.5 12t11.5 5t11.5 -5t5.5 -12v-68h9l63 79q2 3 5.5 4.5t7.5 1.5q3 0 5.5 -1t5.5 -2q6 -5 6.5 -12t-3.5 -12v0zM273 350q-2 0 -5 1t-5 2q-4 3 -5.5 6.5
t-1.5 7.5v-85h17q14 0 24 10t10 24t-10 24t-24 10v0z" />
</svg>
