<?xml version="1.0" standalone="no"?>
<!DOCTYPE svg PUBLIC "-//W3C//DTD SVG 1.1//EN" "http://www.w3.org/Graphics/SVG/1.1/DTD/svg11.dtd" >
<svg xmlns="http://www.w3.org/2000/svg" xmlns:xlink="http://www.w3.org/1999/xlink" version="1.1" viewBox="-10 0 1044 1024">
   <path fill="currentColor"
d="M887 785h-78q-8 0 -12.5 -4.5t-4.5 -12.5t4.5 -12.5t12.5 -4.5h78q8 0 13 4.5t5 12.5t-5 12.5t-13 4.5v0zM887 717h-117q-8 0 -12.5 -5t-4.5 -12q0 -8 4.5 -12.5t12.5 -4.5h117q8 0 13 4.5t5 12.5q0 7 -5 12t-13 5zM362 393q2 0 4 1l4 2q-2 -1 -4.5 -2t-3.5 -1zM348 396
q1 -1 3.5 -2t5.5 -1q-3 0 -5.5 1t-3.5 2zM433 492l4 2t5 1q-3 0 -5 -1zM362 393q2 0 4 1l4 2q-2 -1 -4.5 -2t-3.5 -1zM348 396q1 -1 3.5 -2t5.5 -1q-3 0 -5.5 1t-3.5 2zM348 396q1 -1 3.5 -2t5.5 -1q-3 0 -5.5 1t-3.5 2zM362 393q2 0 4 1l4 2q-2 -1 -4.5 -2t-3.5 -1z
M597 785h-51q-8 0 -12.5 -4.5t-4.5 -12.5t4.5 -12.5t12.5 -4.5h51q8 0 12.5 4.5t4.5 12.5t-4.5 12.5t-12.5 4.5zM597 717h-85q-8 0 -12.5 -5t-4.5 -12q0 -8 4.5 -12.5t12.5 -4.5h85q8 0 12.5 4.5t4.5 12.5q0 7 -4.5 12t-12.5 5zM1007 819h-34q7 -10 12 -23.5t5 -27.5v-666
q0 -35 -25 -60t-60 -25h-205q0 -6 -5.5 -11.5t-11.5 -5.5h-205q-7 0 -12 5.5t-5 11.5h-205q-36 0 -60.5 25t-24.5 60v205h-52q-35 0 -60 25t-25 61v375q0 14 5 27.5t12 23.5h-34q-6 0 -11.5 5.5t-5.5 11.5v103q0 6 5.5 11.5t11.5 5.5h17v51q0 6 5.5 11.5t11.5 5.5h137
q6 0 11.5 -5.5t5.5 -11.5v-51h222v51q0 6 5 11.5t12 5.5h136q7 0 12 -5.5t5 -11.5v-51h222v51q0 6 5.5 11.5t11.5 5.5h137q6 0 11.5 -5.5t5.5 -11.5v-51h17q6 0 11.5 -5.5t5.5 -11.5v-103q0 -6 -5.5 -11.5t-11.5 -5.5v0zM495 34h171v169l-75 -61q-6 -4 -12 -4t-11 4l-73 61
v-169v0zM205 102q0 -21 14.5 -36t36.5 -15h205v188q0 5 2.5 9t7.5 6q4 3 9.5 2t9.5 -3l90 -77l92 77q4 3 9 3.5t10 -2.5q5 -2 7.5 -6t2.5 -9v-188h205q22 0 36.5 15t14.5 36v666q0 22 -14.5 36.5t-36.5 14.5h-240v0v0q1 -1 1.5 -2.5t1.5 -2.5t1.5 -2.5t1.5 -2.5
q2 -1 2.5 -2.5l1.5 -4.5q0 -1 1 -2.5t1 -2.5v0v0q0 -1 0.5 -2.5t0.5 -2.5v-1v-1q0 -1 0.5 -2.5t1.5 -2.5q0 -4 1 -7.5t1 -7.5v-377q0 -36 -25 -61t-61 -25h-136v-17q0 -6 -5.5 -11.5t-11.5 -5.5h-171q-6 0 -11.5 5.5t-5.5 11.5v17h-51v-205v0zM427 307v135l-58 -46l-4 -2
t-5 -1h-2.5h-2.5q-3 0 -4.5 1t-4.5 2l-56 46v-135h137v0zM68 393q0 -22 15 -37t36 -15h137v137q0 5 2.5 9t7.5 6q4 3 9.5 2t7.5 -3l75 -60l75 60l4 2t5 1h5.5t4.5 -2q5 -2 8 -6t3 -9v-137h136q22 0 36.5 15t14.5 37v375q0 22 -14.5 36.5t-36.5 14.5h-480q-21 0 -36 -14.5
t-15 -36.5v-375v0zM171 990h-103v-34h103v34zM563 990h-102v-34h102v34zM956 990h-103v-34h103v34zM990 922h-956v-69h956v69v0z" />
</svg>
