<?xml version="1.0" standalone="no"?>
<!DOCTYPE svg PUBLIC "-//W3C//DTD SVG 1.1//EN" "http://www.w3.org/Graphics/SVG/1.1/DTD/svg11.dtd" >
<svg xmlns="http://www.w3.org/2000/svg" xmlns:xlink="http://www.w3.org/1999/xlink" version="1.1" viewBox="-10 0 1034 1024">
   <path fill="currentColor"
d="M388 764q-75 0 -144.5 -28.5t-121.5 -82.5q-56 -55 -83.5 -124.5t-27.5 -142t27.5 -142t83.5 -125.5q52 -52 120.5 -80t145.5 -28q75 0 144.5 28t122.5 83q55 55 82.5 124.5t27.5 142t-27.5 142t-82.5 124.5q-54 53 -123 81t-144 28zM388 53q-67 0 -128.5 25t-108.5 73
q-48 49 -72.5 110.5t-24.5 126t24.5 126t72.5 111.5q48 48 109 73t128 25t128 -25t109 -73q49 -49 73.5 -110.5t24.5 -125.5t-24.5 -126t-73.5 -112q-48 -48 -109.5 -73t-127.5 -25zM870 1013q-20 0 -39.5 -6t-36.5 -17q-15 -10 -26 -21t-19 -24q-40 -66 -87 -125.5
t-103 -115.5l30 -30q28 28 54.5 58t51 61.5t47 64t43.5 66.5q6 9 14 17t18 15q24 16 53.5 16t53.5 -16q19 -13 31 -33t14 -42q1 -22 -5.5 -43.5t-22.5 -37.5l-6.5 -6.5t-8.5 -6.5q-31 -20 -63 -42.5t-64 -47t-63.5 -52t-61.5 -56.5l30 -30q29 29 59.5 55.5t62 50.5t63 45.5
t60.5 40.5q7 3 12 7.5t10 9.5q22 22 32.5 52.5t7.5 62.5t-20 59.5t-44 45.5q-16 13 -36 19t-41 6v0zM113 900l-43 -6l62 -480l211 130l26 -333l198 98l419 -168l15 38l-434 177l-160 -79l-25 340l-218 -133z" />
</svg>
