<?xml version="1.0" standalone="no"?>
<!DOCTYPE svg PUBLIC "-//W3C//DTD SVG 1.1//EN" "http://www.w3.org/Graphics/SVG/1.1/DTD/svg11.dtd" >
<svg xmlns="http://www.w3.org/2000/svg" xmlns:xlink="http://www.w3.org/1999/xlink" version="1.1" viewBox="-10 0 583 1024">
   <path fill="currentColor"
d="M295 780v70v70h69.5h69.5q22 0 37 15t15 37v17.5v17.5q0 7 -5 12t-12 5h-60h-131.5h-131h-59.5q-7 0 -12 -5t-5 -12v-17.5v-17.5q0 -22 15 -37t37 -15h69h69v-70v-70q-54 -3 -101.5 -26t-82.5 -60.5t-55.5 -86.5t-20.5 -104v-26v-26q0 -7 5 -12t13 -5h17h17q7 0 12.5 5
t5.5 12t-5.5 12.5t-12.5 5.5h-8.5h-8.5v17v17q0 50 19 94.5t52 77.5t77.5 52t94.5 19t94.5 -19t77.5 -52t52 -77.5t19 -94.5v-17v-17h-9h-9q-7 0 -12 -5.5t-5 -12.5t5 -12t12 -5h17.5h17.5q7 0 12.5 5t5.5 12v26v26q0 55 -20.5 104t-55.5 86.5t-82.5 60.5t-102.5 26v0z
M104 972v8.5v8.5h54.5h119.5h119h54v-8.5v-8.5q0 -7 -5 -12.5t-12 -5.5h-49h-107.5h-107h-48.5q-8 0 -13 5.5t-5 12.5v0zM278 677q-72 0 -123 -51t-51 -123v-48.5v-107.5v-107.5v-48.5q0 -72 51 -123t123 -51t122.5 51t50.5 123v48.5v107.5v107.5v48.5q0 72 -50.5 123
t-122.5 51zM417 295h-26h-26q-8 0 -13 -5t-5 -12q0 -8 5 -13t13 -5h26h26v-17v-17h-26h-26q-8 0 -13 -5.5t-5 -12.5t5 -12t13 -5h26h26q0 -44 -24.5 -78.5t-62.5 -50.5v21v21q0 7 -5 12t-12 5q-8 0 -13 -5t-5 -12v-25.5v-25.5q-4 0 -8.5 -0.5t-8.5 -0.5q-5 0 -9 0.5t-9 0.5
v25.5v25.5q0 7 -5 12t-12 5t-12 -5t-5 -12v-21v-21q-38 16 -62.5 50.5t-24.5 78.5h26h26q7 0 12 5t5 12t-5 12.5t-12 5.5h-26h-26v17v17h26h26q7 0 12 5t5 13q0 7 -5 12t-12 5h-26h-26v17.5v17.5h43.5h95.5h95.5h43.5v-17.5v-17.5v0zM365 469h26h26v-17.5v-17.5h-26h-26
q-8 0 -13 -5t-5 -13q0 -7 5 -12t13 -5h26h26v-17.5v-17.5h-43.5h-95.5h-95.5h-43.5v17.5v17.5h26h26q7 0 12 5t5 12q0 8 -5 13t-12 5h-26h-26v17.5v17.5h26h26q7 0 12 5t5 12t-5 12t-12 5h-26h-26q0 58 40.5 98.5t98.5 40.5q57 0 98 -40.5t41 -98.5h-26h-26q-8 0 -13 -5
t-5 -12t5 -12t13 -5v0z" />
</svg>
