<?xml version="1.0" encoding="UTF-8" standalone="no"?><!DOCTYPE svg PUBLIC "-//W3C//DTD SVG 1.1//EN" "http://www.w3.org/Graphics/SVG/1.1/DTD/svg11.dtd"><svg width="100%" height="100%" viewBox="0 0 945 1003" version="1.1" xmlns="http://www.w3.org/2000/svg" xmlns:xlink="http://www.w3.org/1999/xlink" xml:space="preserve" xmlns:serif="http://www.serif.com/" style="fill-rule:evenodd;clip-rule:evenodd;stroke-linejoin:round;stroke-miterlimit:2;"><g><path d="M593.067,817.066l-243.2,0l0,-471.467c0,-64 55.467,-117.333 121.6,-117.333c68.267,0 121.6,53.333 121.6,100.267l0,488.533Zm-202.668,-42.666l162.134,0l0,-445.867c0,-23.467 -34.133,-57.6 -81.067,-57.6c-44.8,0 -81.067,34.133 -81.067,74.667l0,428.8Zm59.735,-189.867l42.667,0l-0,211.2l-42.667,0l-0,-211.2Zm21.333,-388.267c-53.333,0 -96,-44.8 -96,-98.133c-0,-53.333 42.667,-98.133 96,-98.133c53.333,0 96,44.8 96,98.133c-0,53.333 -42.667,98.133 -96,98.133Zm-0,-153.6c-29.867,0 -53.333,25.6 -53.333,55.467c-0,29.867 23.467,55.467 53.333,55.467c29.866,0 53.333,-25.6 53.333,-55.467c-0,-32 -23.467,-55.467 -53.333,-55.467Zm168.533,241.067l42.667,0l-0,166.4l-42.667,0l-0,-166.4Zm-379.733,0l42.667,0l-0,166.4l-42.667,0l-0,-166.4Zm615.817,679.126l-222.523,-78.649l17.822,-40.162l219.065,78.592l-14.364,40.219Zm28.45,-79.659l-42.667,119.467l81.067,-38.4l-38.4,-81.067Zm-632.57,-137.66l-219.066,-78.592l14.127,-40.263l225.12,80.764l-20.181,38.091Zm-233.564,-37.274l42.667,-121.6l-81.067,38.4l38.4,83.2Zm23.239,258.027l-14.413,-40.158l226.892,-81.432l15.955,39.605l-228.434,81.985Zm-23.239,-83.093l42.667,119.467l-78.399,-35.732l35.732,-83.735Zm631.987,-134.645l-14.413,-40.158l226.892,-81.432l14.413,40.158l-226.892,81.432Zm234.672,-38.793l-43.192,-123.096l82.696,39.172l-39.504,83.924Zm-433.592,207.571c-149.333,0 -260.267,-53.333 -260.267,-121.6c0,-34.133 25.6,-64 74.667,-85.333c25.6,-12.8 53.333,-17.067 85.333,-17.067l0,42.667c-25.6,0 -49.067,4.267 -68.267,12.8c-32,14.933 -49.067,32 -49.067,49.067c0,34.133 83.2,78.933 219.733,78.933c136.533,0 219.733,-46.933 219.733,-78.933c0,-14.933 -19.2,-34.133 -49.067,-49.067c-19.2,-8.533 -42.667,-12.8 -68.267,-12.8l0,-42.667c32,0 59.733,6.4 85.333,17.067c46.933,21.333 74.667,53.333 74.667,85.333c-4.267,68.267 -115.2,121.6 -264.533,121.6l0.002,0Z" style="fill-rule:nonzero;"/></g></svg>