<?xml version="1.0" standalone="no"?>
<!DOCTYPE svg PUBLIC "-//W3C//DTD SVG 1.1//EN" "http://www.w3.org/Graphics/SVG/1.1/DTD/svg11.dtd" >
<svg xmlns="http://www.w3.org/2000/svg" xmlns:xlink="http://www.w3.org/1999/xlink" version="1.1" viewBox="-10 0 1034 1024">
   <path fill="currentColor"
d="M784 224h32v288h-32v-288zM768 1008h-704q-20 0 -34 -14t-14 -34v-896q0 -20 14 -34t34 -14h704q20 0 34 14t14 34v80h-32v-80q0 -7 -4.5 -11.5t-11.5 -4.5h-704q-7 0 -11.5 4.5t-4.5 11.5v896q0 7 4.5 11.5t11.5 4.5h704q7 0 11.5 -4.5t4.5 -11.5v-320h32v320
q0 20 -14 34t-34 14zM466 910l65 -151l372 -373q9 -9 20 -13.5t24 -4.5q25 0 43 18t18 43q0 13 -4.5 24t-13.5 20l-373 373l-151 64v0zM557 777l-31 73l73 -32l368 -368q5 -4 7 -9.5t2 -11.5q0 -12 -8.5 -20.5t-20.5 -8.5q-6 0 -11.5 2t-9.5 7zM533 779l22 -22l64 64l-22 22
zM837 475l22 -22l64 64l-22 22zM224 320q-40 0 -68 -28t-28 -68t28 -68t68 -28t68 28t28 68t-28 68t-68 28zM224 160q-26 0 -45 19t-19 45t19 45t45 19t45 -19t19 -45t-19 -45t-45 -19zM144 352h128v32h-128v-32zM272 592h-112v-112h112v112zM192 560h48v-48h-48v48z
M272 752h-112v-112h112v112zM192 720h48v-48h-48v48zM560 592h-112v-112h112v112zM480 560h48v-48h-48v48zM560 752h-112v-112h112v112zM480 720h48v-48h-48v48zM432 176h224v32h-224v-32zM432 272h288v32h-288v-32zM432 368h288v32h-288v-32zM304 496h80v32h-80v-32z
M304 560h80v32h-80v-32zM592 496h80v32h-80v-32zM592 560h80v32h-80v-32zM304 688h80v32h-80v-32zM160 816h288v32h-288v-32zM160 880h288v32h-288v-32zM304 352h32v32h-32v-32zM864 336h-32q0 -51 -36.5 -97.5t-91.5 -46.5v-32q54 0 91 -37t37 -91h32q0 58 35 93t93 35v32
q-53 0 -90.5 50.5t-37.5 93.5zM771 178q26 13 46.5 36t32.5 52q12 -26 31 -49t43 -37q-26 -11 -46 -30t-31 -45q-12 24 -31.5 42.5t-44.5 30.5v0zM720 912h32v32h-32v-32zM656 912h32v32h-32v-32zM80 912h32v32h-32v-32z" />
</svg>
