<?xml version="1.0" standalone="no"?>
<!DOCTYPE svg PUBLIC "-//W3C//DTD SVG 1.1//EN" "http://www.w3.org/Graphics/SVG/1.1/DTD/svg11.dtd" >
<svg xmlns="http://www.w3.org/2000/svg" xmlns:xlink="http://www.w3.org/1999/xlink" version="1.1" viewBox="-10 0 1044 1024">
   <path fill="currentColor"
d="M128 969v-201h-64q-26 0 -45 -19t-19 -45v-555q0 -26 19 -45t45 -19h896q26 0 45 19t19 45v555q0 26 -19 45t-45 19h-631zM64 128q-9 0 -15 6.5t-6 14.5v555q0 9 6 15t15 6h107v141l140 -141h649q9 0 15 -6t6 -15v-555q0 -8 -6 -14.5t-15 -6.5h-896zM384 427
q0 17 -12.5 29.5t-30.5 12.5q-17 0 -29.5 -12.5t-12.5 -29.5q0 -18 12.5 -30.5t29.5 -12.5q18 0 30.5 12.5t12.5 30.5zM725 427q0 17 -12.5 29.5t-29.5 12.5q-18 0 -30.5 -12.5t-12.5 -29.5q0 -18 12.5 -30.5t30.5 -12.5q17 0 29.5 12.5t12.5 30.5zM555 427q0 17 -12.5 29.5
t-30.5 12.5t-30.5 -12.5t-12.5 -29.5q0 -18 12.5 -30.5t30.5 -12.5t30.5 12.5t12.5 30.5z" />
</svg>
