<?xml version="1.0" standalone="no"?>
<!DOCTYPE svg PUBLIC "-//W3C//DTD SVG 1.1//EN" "http://www.w3.org/Graphics/SVG/1.1/DTD/svg11.dtd" >
<svg xmlns="http://www.w3.org/2000/svg" xmlns:xlink="http://www.w3.org/1999/xlink" version="1.1" viewBox="-10 0 1034 1024">
   <path fill="currentColor"
d="M272 128q-7 0 -11.5 4.5t-4.5 11.5v784h-192v32h896v-32h-192v-784q0 -7 -4.5 -11.5t-11.5 -4.5h-480zM288 160h448v768h-448v-768zM400 256q-7 0 -11.5 4.5t-4.5 11.5v384q0 7 4.5 11.5t11.5 4.5h224q7 0 11.5 -4.5t4.5 -11.5v-384q0 -7 -4.5 -11.5t-11.5 -4.5h-224z
M416 288h80v160h-80v-160zM528 288h80v160h-80v-160zM416 480h80v160h-80v-160zM528 480h80v160h-80v-160zM336 608q-7 0 -11.5 4.5t-4.5 11.5t4.5 11.5t11.5 4.5t11.5 -4.5t4.5 -11.5t-4.5 -11.5t-11.5 -4.5zM400 800q-7 0 -11.5 4.5t-4.5 11.5v64q0 7 4.5 11.5t11.5 4.5
h224q7 0 11.5 -4.5t4.5 -11.5v-64q0 -7 -4.5 -11.5t-11.5 -4.5h-224zM416 832h192v32h-192v-32z" />
</svg>
