<?xml version="1.0" standalone="no"?>
<!DOCTYPE svg PUBLIC "-//W3C//DTD SVG 1.1//EN" "http://www.w3.org/Graphics/SVG/1.1/DTD/svg11.dtd" >
<svg xmlns="http://www.w3.org/2000/svg" xmlns:xlink="http://www.w3.org/1999/xlink" version="1.1" viewBox="-10 0 698 1024">
   <path fill="currentColor"
d="M621 285h-42h-42v75.5v75.5q0 21 -14.5 36t-35.5 15v81v179v179v81q0 7 -5 12t-12 5t-12 -5t-5 -12v-81v-179v-179v-81q-20 0 -35 -15t-15 -36v-44.5v-98v-98v-44.5q0 -56 39.5 -95t94.5 -39h42h42q21 0 36 14.5t15 35.5v26.5v57.5v57.5v26.5q0 21 -15 35.5t-36 14.5v0z
M437 436q0 7 4.5 12t11.5 5h17h17q7 0 12 -5t5 -12v-77.5v-77.5h-0.5h-0.5q-19 -5 -36 -16t-30 -25v30.5v67.5v67.5v30.5v0zM437 151q0 5 0.5 9.5t0.5 9.5q1 2 1.5 4t1.5 5q1 2 1.5 4.5t1.5 4.5t2 4.5t2 5.5q1 1 2 2.5t2 3.5q2 2 3.5 4.5t3.5 4.5q1 2 2 3l2 2q2 3 4 5t4 3
l3 3t3 2q2 2 4 3.5t5 2.5q1 1 3 2t3 2q3 1 5.5 2t5.5 2q1 1 3 1.5t4 0.5q2 1 5 2t6 1q4 1 8 1.5t8 0.5h17h17v-31.5v-69.5v-69.5v-31.5h-17h-17q-41 0 -70.5 29.5t-29.5 71.5v0zM638 67q0 -7 -5 -12t-12 -5h-8.5h-8.5v31.5v69.5v69.5v31.5h8.5h8.5q7 0 12 -5t5 -12v-26.5
v-57.5v-57.5v-26.5zM202 267v26.5v58v58v26.5q0 21 -15 36t-36 15v81v179v179v81q0 7 -5 12t-12 5t-11.5 -5t-4.5 -12v-81v-179v-179v-81q-21 0 -36 -15t-15 -36v-26.5v-58v-58v-26.5q-30 -17 -48.5 -48t-18.5 -68q0 -56 39.5 -95t94.5 -39q56 0 95.5 39t39.5 95
q0 37 -18.5 68t-48.5 48v0zM101 436q0 7 5 12t12 5h16.5h16.5q7 0 12 -5t5 -12v-77.5v-77.5h-0.5h-1.5q-3 1 -6 1.5t-6 1.5h-2h-2q-4 1 -8 1h-8h-7.5t-7.5 -1h-2h-2q-3 -1 -6 -1.5t-6 -1.5h-1.5h-0.5v77.5v77.5v0zM134 50q-41 0 -70.5 29.5t-29.5 71.5q0 30 16.5 54.5
t42.5 36.5q4 2 8.5 3.5t8.5 2.5q1 1 1.5 1h1.5q10 3 21 3t22 -3h1.5t0.5 -1q5 -1 9.5 -2.5t8.5 -3.5q26 -12 42.5 -36.5t16.5 -54.5q0 -42 -29.5 -71.5t-71.5 -29.5v0zM134 218q-27 0 -47 -19.5t-20 -47.5t20 -47.5t47 -19.5q28 0 48 19.5t20 47.5t-20 47.5t-48 19.5z
M134 117q-14 0 -23.5 10t-9.5 24t9.5 24t23.5 10t24 -10t10 -24t-10 -24t-24 -10v0z" />
</svg>
