<?xml version="1.0" standalone="no"?>
<!DOCTYPE svg PUBLIC "-//W3C//DTD SVG 1.1//EN" "http://www.w3.org/Graphics/SVG/1.1/DTD/svg11.dtd" >
<svg xmlns="http://www.w3.org/2000/svg" xmlns:xlink="http://www.w3.org/1999/xlink" version="1.1" viewBox="-10 0 1044 1024">
   <path fill="currentColor"
d="M683 597h-4.5t-4.5 -1q-5 -3 -9 -8.5t-4 -11.5v-149h-64q-9 0 -15 -6.5t-6 -15.5t6 -15t15 -6h86q9 0 15 6t6 15v120l134 -135q3 -3 7 -4.5t8 -1.5h128v-341h-597v149q0 9 -6 15t-15 6t-15.5 -6t-6.5 -15v-171q0 -9 6.5 -15t15.5 -6h640q9 0 15 6t6 15v384q0 9 -6 15.5
t-15 6.5h-141l-164 164q-3 3 -7 4.5t-8 1.5v0zM683 1024h-683v-85q0 -39 22.5 -70.5t58.5 -44.5l155 -55v-77h42v107l-182 65q-24 9 -38.5 29.5t-14.5 45.5v42h597v-42q0 -25 -14.5 -45.5t-38.5 -29.5l-183 -65v-113h43v83l154 55q37 13 59.5 44.5t22.5 70.5v85v0zM337 738
q-39 0 -73.5 -17.5t-60.5 -48t-41 -71.5t-15 -87t15 -86.5t41 -71t60.5 -48t73.5 -17.5t73.5 17.5t60.5 48t41 71t15 86.5t-15 87t-41 71.5t-60.5 48t-73.5 17.5zM337 333q-61 0 -104 53t-43 128t43 128t104 53t104 -53t43 -128t-43 -128t-104 -53zM460 522q-30 0 -54 -13
t-45 -40q-22 22 -56.5 36t-68.5 14q-21 0 -39 -4.5t-36 -13.5l20 -38q13 7 26.5 10t28.5 3q31 0 64 -16t44 -37l18 -35l19 34q21 37 44.5 49t59.5 5h6.5h6.5h2t2 -1l5 43h-4.5h-5.5h-2h-2q-9 2 -17 3t-16 1v0zM789 213q-9 0 -15 6.5t-6 15.5q0 8 6 14.5t15 6.5t15.5 -6.5
t6.5 -14.5q0 -9 -6.5 -15.5t-15.5 -6.5v0zM683 213q-9 0 -15.5 6.5t-6.5 15.5q0 8 6.5 14.5t15.5 6.5t15 -6.5t6 -14.5q0 -9 -6 -15.5t-15 -6.5v0zM576 213q-9 0 -15 6.5t-6 15.5q0 8 6 14.5t15 6.5t15 -6.5t6 -14.5q0 -9 -6 -15.5t-15 -6.5v0z" />
</svg>
