<?xml version="1.0" standalone="no"?>
<!DOCTYPE svg PUBLIC "-//W3C//DTD SVG 1.1//EN" "http://www.w3.org/Graphics/SVG/1.1/DTD/svg11.dtd" >
<svg xmlns="http://www.w3.org/2000/svg" xmlns:xlink="http://www.w3.org/1999/xlink" version="1.1" viewBox="-10 0 1071 1024">
   <path fill="currentColor"
d="M1042 1005q-6 3 -13 1.5t-11 -8.5q-8 -14 -29 -22.5t-53 -11.5q-7 0 -11.5 -5t-4.5 -12v-8q0 -4 2.5 -8.5t6.5 -6.5q3 -2 10 -10t7 -33q0 -20 -12 -34t-30 -14h-2q-18 0 -30.5 14t-12.5 34q0 25 7.5 33t10.5 10q4 2 6.5 6.5t2.5 8.5v8q0 7 -4.5 12t-11.5 5
q-33 3 -54 11.5t-29 24.5q-2 4 -6.5 6.5t-8.5 2.5q-3 0 -5 -0.5t-4 -1.5q-6 -4 -8 -10.5t1 -13.5q10 -19 30.5 -31.5t50.5 -18.5q-6 -10 -9 -23t-3 -29q0 -34 22.5 -58.5t54.5 -24.5h2q32 0 54.5 24.5t22.5 58.5q0 16 -3 29t-10 23q30 6 50 18t30 30q4 6 2 13t-8 11v0z
M937 52h35q7 0 12.5 5t5.5 12v35q0 7 -5.5 12t-12.5 5t-12 -5t-5 -12v-17h-18q-7 0 -12 -5t-5 -13q0 -7 5 -12t12 -5zM972 364q7 0 12.5 5.5t5.5 12.5v35q0 7 -5.5 12t-12.5 5h-35q-7 0 -12 -5t-5 -12q0 -8 5 -13t12 -5h18v-17q0 -7 5 -12.5t12 -5.5zM1024 486h-676
q-8 0 -13 -5t-5 -12v-157q0 -7 5 -12t13 -5q7 0 12 5t5 12v139h642v-416h-642v86q0 8 -5 13t-12 5q-8 0 -13 -5t-5 -13v-104q0 -7 5 -12t13 -5h676q8 0 13 5t5 12v452q0 7 -5 12t-13 5v0zM400 121q-8 0 -13 -5t-5 -12v-35q0 -7 5 -12t13 -5h34q7 0 12.5 5t5.5 12
q0 8 -5.5 13t-12.5 5h-17v17q0 7 -5 12t-12 5zM504 278h52q7 0 12 5t5 12t-5 12t-12 5h-52q-7 0 -12.5 -5t-5.5 -12t5.5 -12t12.5 -5zM712 295q0 7 -5 12t-12 5h-70q-7 0 -12 -5t-5 -12t5 -12t12 -5h70q7 0 12 5t5 12zM608 121q0 -7 5 -12t12 -5h104q7 0 12.5 5t5.5 12
q0 8 -5.5 13t-12.5 5h-104q-7 0 -12 -5t-5 -13v0zM747 382h-243q-7 0 -12.5 -5t-5.5 -13q0 -7 5.5 -12t12.5 -5h243q7 0 12 5t5 12q0 8 -5 13t-12 5zM868 347q7 0 12 5t5 12q0 8 -5 13t-12 5h-52q-7 0 -12 -5t-5 -13q0 -7 5 -12t12 -5h52zM747 295q0 -7 5 -12t12 -5h104
q7 0 12 5t5 12t-5 12t-12 5h-104q-7 0 -12 -5t-5 -12zM400 364q7 0 12 5.5t5 12.5v17h17q7 0 12.5 5t5.5 13q0 7 -5.5 12t-12.5 5h-34q-8 0 -13 -5t-5 -12v-35q0 -7 5 -12.5t13 -5.5zM392 185q7 -2 15 -2.5t12 -0.5q14 0 23.5 6t15.5 14l145 -45q7 -2 13 1.5t8 9.5
q3 7 -0.5 13.5t-10.5 8.5l-152 48q-2 3 -4 5.5t-5 4.5q-12 10 -32.5 12t-33.5 -1q-9 -1 -64.5 3t-78.5 9v354q0 21 -15 36.5t-37 15.5h-69q-22 0 -37 -15.5t-15 -36.5v-192q-19 -1 -44.5 -17.5t-25.5 -55.5v-99q0 -26 18 -53.5t73 -37.5q-6 -10 -9.5 -23.5t-3.5 -29.5
q0 -34 23 -58t54 -24h3q32 0 54.5 24t22.5 58q0 14 -2.5 25t-7.5 21q49 -2 97 7t70 15v0zM174 185q0 -1 -0.5 -1t-0.5 -1v-7q0 -5 2.5 -9t7.5 -7q3 -1 10 -9t7 -34q0 -20 -12.5 -34t-29.5 -14h-3q-17 0 -29.5 14t-12.5 34q0 26 7 34t11 9q4 3 6.5 7t2.5 9v7q0 7 -5 12t-11 6
q-67 4 -78 26.5t-11 33.5v99q0 22 13.5 29.5t21.5 8.5v-121q0 -7 5 -12.5t12 -5.5t12.5 5.5t5.5 12.5v348q0 7 5 12t12 5h17v-201q0 -7 5 -12t13 -5q7 0 12 5t5 12v201h17q8 0 13 -5t5 -12v-365v0v0v0v0v0v0q0 -2 0.5 -3.5t0.5 -3.5q1 -1 1.5 -2t1.5 -2l0.5 -0.5l0.5 -0.5
l1.5 -1.5t0.5 -1.5q4 -3 18.5 -7.5t73.5 -9.5q3 0 40 -3t46 0q9 2 19.5 0.5t15.5 -3.5q-1 -2 -3 -3.5t-7 -1.5q-4 0 -11.5 0.5t-9.5 1.5q-3 1 -6.5 1.5t-5.5 -0.5q-23 -8 -83.5 -18t-108.5 -2h-1h-1l-0.5 0.5l-0.5 0.5q-1 0 -1.5 -0.5l-0.5 -0.5h-2h-2q0 -1 -1 -1t-1 -1
q-1 0 -2 -0.5t-1 -1.5q-1 0 -1.5 -0.5t-0.5 -1.5l-1.5 -1.5t-0.5 -1.5q-1 0 -1 -1t-1 -2v-0.5v-1.5v-0.5v-0.5v0zM143 933q-6 -10 -9.5 -23t-3.5 -29q0 -34 23 -58.5t54 -24.5h3q32 0 54.5 24.5t22.5 58.5q0 16 -3.5 29t-9.5 23q29 6 49 17.5t30 29.5q4 6 2.5 13t-8.5 11
q-2 1 -4 1.5t-4 0.5q-5 0 -9 -2t-6 -6q-9 -15 -29.5 -23t-52.5 -11q-7 0 -12 -5t-5 -12v-8q0 -4 2.5 -8.5t7.5 -6.5q3 -2 10 -10t7 -33q0 -20 -12.5 -34t-29.5 -14h-3q-17 0 -29.5 14t-12.5 34q0 25 7 33t11 10t6.5 6.5t2.5 8.5v8q0 7 -4.5 12t-11.5 5q-33 3 -53.5 11
t-28.5 23q-4 6 -11 7.5t-13 -1.5q-6 -4 -8 -11t2 -13q10 -18 30 -29.5t49 -17.5v0zM267 755q-3 6 -10 7.5t-13 -1.5q-7 -4 -8.5 -11t1.5 -13q11 -18 31 -29.5t49 -17.5q-7 -10 -10 -23t-3 -29q0 -34 22.5 -58.5t54.5 -24.5h2q32 0 54.5 24.5t22.5 58.5q0 16 -3 29t-9 23
q29 6 48.5 17.5t30.5 29.5q4 6 2 13t-8 11q-2 1 -4.5 1.5t-4.5 0.5q-4 0 -8 -2t-7 -6q-8 -15 -29 -23t-53 -11q-7 0 -11.5 -5t-4.5 -12v-8q0 -4 2.5 -8.5t6.5 -6.5q3 -2 10.5 -10t7.5 -33q0 -20 -12.5 -34t-30.5 -14h-2q-17 0 -29.5 14t-12.5 34q0 25 7 33t10 10
q4 2 6.5 6.5t2.5 8.5v8q0 7 -4.5 12t-11.5 5q-32 3 -52.5 11t-29.5 23v0zM490 933q-6 -10 -9 -23t-3 -29q0 -34 22.5 -58.5t54.5 -24.5h2q32 0 54.5 24.5t22.5 58.5q0 16 -3 29t-10 23q29 6 49 17.5t31 29.5q3 6 1.5 13t-8.5 11q-2 1 -4 1.5t-4 0.5q-5 0 -9 -2t-6 -6
q-9 -15 -29.5 -23t-52.5 -11q-7 0 -11.5 -5t-4.5 -12v-8q0 -4 2.5 -8.5t6.5 -6.5q3 -2 10 -10t7 -33q0 -20 -12.5 -34t-29.5 -14h-2q-18 0 -30.5 14t-12.5 34q0 25 7 33t11 10t6.5 6.5t2.5 8.5v8q0 7 -4.5 12t-11.5 5q-32 3 -53 11t-29 23q-4 6 -11 7.5t-13 -1.5
q-6 -4 -8 -11t2 -13q11 -18 30.5 -29.5t48.5 -17.5v0zM613 757q-2 4 -6 6.5t-9 2.5q-2 0 -4 -0.5t-4 -1.5q-6 -4 -8.5 -10.5t1.5 -13.5q10 -19 30.5 -31.5t50.5 -18.5q-7 -10 -10 -23t-3 -29q0 -34 22.5 -58.5t54.5 -24.5h2q32 0 55 24.5t23 58.5q0 16 -3.5 29t-9.5 23
q29 6 49 18t31 30q3 6 1 13t-8 11q-6 3 -13 1.5t-10 -8.5q-9 -14 -29.5 -22.5t-53.5 -11.5q-7 0 -11.5 -5t-4.5 -12v-8q0 -4 2.5 -8.5t6.5 -6.5t11 -10t7 -33q0 -20 -12.5 -34t-30.5 -14h-2q-17 0 -29.5 14t-12.5 34q0 25 7 33t10 10q5 2 7 6.5t2 8.5v8q0 7 -4.5 12t-11.5 5
q-33 3 -54 11.5t-29 24.5v0z" />
</svg>
