<?xml version="1.0" encoding="UTF-8" standalone="no"?><!DOCTYPE svg PUBLIC "-//W3C//DTD SVG 1.1//EN" "http://www.w3.org/Graphics/SVG/1.1/DTD/svg11.dtd"><svg width="20px" height="20px" viewBox="0 0 851 839" version="1.1" xmlns="http://www.w3.org/2000/svg" xmlns:xlink="http://www.w3.org/1999/xlink" xml:space="preserve" xmlns:serif="http://www.serif.com/" style="fill-rule:evenodd;clip-rule:evenodd;stroke-linejoin:round;stroke-miterlimit:2;"><rect id="Page-5" serif:id="Page 5" x="0" y="0" width="850.065" height="838.355" style="fill:none;"/><g id="Layer-1" serif:id="Layer 1"><path d="M355.547,354.512c-3.054,37.88 -0.874,79.206 19.399,95.371c23.59,18.81 74.347,-50.592 79.511,-114.652c3.718,-46.112 -6.115,-80.549 -34.504,-85.568c-31.085,-5.496 -59.598,45.216 -64.406,104.849" style="fill:#ef3e4e;fill-rule:nonzero;"/><path d="M556.343,663.031c-66.578,0 -129.244,-21.674 -181.388,-62.71l-44.608,44.605l-0.532,0.391c-16.074,11.791 -53.656,24.476 -80.819,-11.916c-22.911,-30.692 -6.611,-61.653 5.207,-73.738l46.428,-45.842c-24.827,-43.892 -37.919,-93.716 -37.919,-144.423c-0,-77.047 29.278,-152.222 74.59,-191.52c27.564,-23.908 60.02,-34.043 93.916,-29.276c75.525,5.455 122.424,70.528 122.424,169.909c-0,89.986 -39.507,145.824 -98.834,201.956l-1.269,1.268c33.627,18.231 71.497,27.829 110.029,27.829c127.34,0 202.809,-84.852 200.018,-212.118c-14.83,-164.052 -180.317,-273.078 -304.75,-276.284c-0.538,-0.012 -28.649,-0.821 -31.703,-0.704c-158.765,5.304 -284.681,107.067 -321.619,250.843c-10.47,35.004 -15.431,72.305 -13.883,110.855c2.925,72.876 28.64,139.452 69.993,193.152c-11.405,34.904 -38.537,86.853 -39.145,105.583c-0.532,16.376 3.29,31.244 16.948,40.511c6.814,4.631 13.787,6.243 20.344,6.239c10.189,-0.006 32.692,-8.564 38.916,-10.596c10.6,-3.459 65.514,-28.944 91.894,-39.447c46.687,21.196 98.895,32.11 153.623,29.912c96.03,-3.856 181.118,-47.28 240.218,-113.922c-38.728,18.852 -82.187,29.443 -128.079,29.443" style="fill:#ef3e4e;fill-rule:nonzero;"/></g></svg>